<?xml version="1.0" standalone="no"?>
<!DOCTYPE svg PUBLIC "-//W3C//DTD SVG 20010904//EN"
 "http://www.w3.org/TR/2001/REC-SVG-20010904/DTD/svg10.dtd">
<svg version="1.0" xmlns="http://www.w3.org/2000/svg"
 width="225.000000pt" height="225.000000pt" viewBox="0 0 225.000000 225.000000"
 preserveAspectRatio="xMidYMid meet">
<metadata>
Created by potrace 1.15, written by Peter Selinger 2001-2017
</metadata>
<g transform="translate(0.000000,225.000000) scale(0.100000,-0.100000)"
fill="#000000" stroke="none">
<path d="M1 2175 l2 -74 30 21 c17 12 26 15 21 7 -5 -7 -9 -17 -9 -21 0 -3 -4
-10 -9 -15 -5 -5 -6 -3 -2 5 4 6 3 12 -2 12 -27 0 -32 -33 -30 -231 0 -112 3
-194 5 -181 8 39 21 23 25 -30 3 -34 -2 -71 -13 -103 -11 -33 -17 -76 -16
-125 2 -73 3 -75 27 -75 29 0 37 -21 39 -100 1 -27 6 -57 12 -65 7 -11 9 25 7
125 -2 77 -2 129 2 115 3 -14 12 -25 20 -25 11 0 19 -23 29 -87 7 -49 17 -88
22 -88 13 0 -2 174 -16 182 -23 14 -25 55 -5 101 11 24 21 67 22 95 2 34 6 48
14 45 14 -5 34 27 34 55 0 15 -5 19 -20 15 -12 -3 -20 -14 -20 -27 -1 -19 -1
-20 -11 -3 -6 10 -8 25 -5 33 3 8 1 14 -4 14 -6 0 -10 9 -10 21 0 11 -4 29
-10 39 -9 18 -20 286 -12 295 3 2 7 25 9 51 5 59 17 81 45 87 13 2 -21 5 -75
6 l-98 1 2 -75z"/>
<path d="M2116 2227 c18 -16 29 -37 34 -70 4 -25 3 -44 -2 -41 -4 3 -13 -7
-20 -21 -10 -23 -9 -33 12 -73 19 -35 25 -61 25 -112 0 -36 -4 -73 -9 -82 -6
-13 -4 -18 5 -18 8 0 25 -9 39 -20 20 -16 22 -20 8 -20 -10 0 -18 5 -18 10 0
6 -16 10 -36 10 -31 0 -35 -3 -32 -22 2 -18 10 -23 33 -23 17 0 31 -4 33 -10
6 -18 35 -45 49 -45 10 0 13 52 13 280 l0 280 -81 0 -80 0 27 -23z"/>
<path d="M161 2005 l1 -206 52 3 51 3 3 78 3 77 48 0 c48 0 48 0 54 37 4 20 4
40 1 45 -3 4 -27 8 -55 8 -45 0 -49 2 -49 24 0 13 -2 30 -5 38 -4 10 12 12 80
10 l85 -3 0 45 0 46 -135 0 -136 0 2 -205z"/>
<path d="M492 2133 c-23 -42 -42 -85 -42 -96 0 -11 -3 -17 -7 -14 -5 6 -93
-135 -93 -152 0 -3 -9 -17 -20 -31 -11 -14 -20 -28 -20 -31 0 -4 25 -7 55 -7
l55 0 25 49 c25 49 26 49 75 49 l50 0 0 -51 0 -50 53 3 52 3 3 123 c2 116 2
122 -17 122 -11 0 -23 -4 -26 -10 -3 -5 -12 -10 -18 -10 -7 0 -6 4 3 10 19 12
8 22 -14 14 -9 -4 -15 -13 -12 -21 5 -13 -48 -54 -69 -52 -5 0 -5 3 1 5 7 3
10 21 6 50 -4 38 -1 48 20 67 21 19 34 23 74 20 l49 -4 2 46 2 45 -73 0 -73 0
-41 -77z"/>
<path d="M700 2155 c0 -48 2 -55 20 -55 13 0 18 -5 14 -15 -4 -8 -12 -15 -20
-15 -11 0 -14 -26 -14 -135 l0 -135 29 0 c16 0 41 4 55 10 24 9 25 14 28 87
l3 78 58 -88 c57 -86 78 -102 105 -75 7 7 12 8 12 2 0 -6 -5 -15 -11 -21 -17
-17 -18 -111 -2 -118 8 -2 11 0 8 5 -3 6 -1 10 4 10 6 0 11 17 12 38 l1 37 13
-30 c8 -16 14 -24 15 -17 0 7 4 11 9 8 10 -7 25 22 22 42 -2 15 -4 15 55 -4
51 -17 107 -61 98 -76 -3 -4 0 -8 5 -8 20 0 11 -16 -19 -33 -18 -11 -27 -23
-24 -32 4 -9 -1 -18 -11 -22 -17 -6 -17 -7 1 -20 17 -12 17 -13 0 -13 -13 0
-16 -6 -12 -22 3 -13 3 -18 0 -11 -9 19 -77 5 -97 -19 -18 -21 -18 -22 3 -38
13 -10 20 -24 18 -40 -3 -25 -2 -25 70 -24 52 0 76 4 82 14 5 8 12 11 16 8 11
-12 13 -81 3 -100 -9 -17 -12 -17 -32 -3 -26 18 -49 20 -25 1 27 -20 12 -56
-23 -56 -37 0 -38 18 -1 22 15 2 27 7 27 12 0 14 -36 16 -59 4 -12 -5 -5 5 14
23 22 21 30 34 22 37 -7 2 -20 -2 -29 -10 -15 -11 -16 -11 -10 5 3 9 2 17 -3
17 -10 0 -14 -15 -11 -34 1 -4 -4 -14 -10 -22 -7 -8 -9 -17 -6 -21 4 -3 2 -12
-4 -20 -10 -11 -15 -11 -35 2 -25 16 -37 7 -28 -22 5 -16 4 -16 -10 2 -9 11
-15 24 -12 31 2 6 -4 17 -15 25 -10 7 -19 17 -19 21 0 13 18 9 34 -8 15 -14
16 -14 16 0 0 9 -8 16 -17 17 -16 0 -15 2 2 10 l20 9 -20 -3 c-11 -1 -26 4
-32 13 -11 13 -12 10 -11 -15 1 -16 4 -34 7 -40 10 -19 11 -66 1 -60 -5 3 -7
0 -4 -9 3 -8 -2 -26 -12 -41 -16 -25 -19 -26 -30 -10 -35 48 -42 243 -8 214
11 -9 14 -7 14 11 0 15 -5 20 -14 17 -10 -4 -18 3 -23 19 l-8 25 -30 -22 c-19
-16 -30 -19 -33 -11 -2 7 -13 12 -25 12 -20 0 -20 0 2 -24 25 -27 22 -70 -5
-59 -17 6 -18 -7 -3 -41 7 -14 16 -23 22 -19 5 3 13 -1 18 -8 7 -12 9 -11 9 1
0 13 1 13 10 0 6 -9 5 -17 -2 -21 -7 -5 -7 -18 2 -43 7 -21 10 -39 8 -42 -3
-2 -11 15 -18 38 -22 75 -22 74 -27 60 -3 -9 -15 1 -32 27 l-27 40 0 -35 c0
-20 -6 -39 -15 -45 -20 -13 -29 -11 -29 5 0 8 -5 18 -11 22 -9 5 -10 -2 -5
-22 15 -67 15 -85 1 -90 -7 -3 -16 -23 -20 -45 -7 -42 -35 -69 -72 -69 -13 0
-23 -4 -23 -10 0 -5 -7 -10 -16 -10 -13 0 -15 7 -10 38 l7 37 -20 -41 c-17
-38 -36 -54 -63 -54 -6 0 -6 6 2 15 10 12 9 20 -4 40 -10 15 -23 28 -31 31
-21 8 -63 -27 -77 -63 -7 -18 -16 -33 -20 -33 -4 0 -8 -6 -8 -13 0 -18 -29
-77 -48 -99 -8 -10 -12 -24 -8 -33 8 -21 -11 -68 -25 -60 -6 4 -15 17 -20 29
-8 18 -9 17 -4 -6 3 -16 1 -28 -5 -28 -5 0 -10 5 -10 10 0 19 -31 10 -39 -12
-8 -21 -10 -22 -16 -5 -6 14 -10 15 -16 6 -6 -10 -11 -10 -23 0 -9 8 -16 10
-16 5 0 -5 -5 -2 -11 6 -8 12 -10 8 -7 -17 3 -18 1 -30 -4 -27 -13 8 -9 -20 5
-39 17 -23 87 -30 87 -8 0 11 3 12 8 4 4 -6 19 -9 34 -6 22 4 29 12 34 42 4
20 9 31 11 24 2 -6 -4 -37 -13 -70 -17 -59 -22 -158 -10 -225 7 -35 5 -37 -21
-40 -15 -2 -43 3 -62 10 -18 7 -40 11 -48 8 -8 -3 -24 -1 -36 6 -21 11 -21 11
-2 18 20 8 20 8 0 15 -11 3 -27 10 -35 14 -8 4 -23 5 -32 3 -17 -3 -18 -25
-18 -283 l0 -280 319 1 c263 1 322 4 332 16 6 8 26 14 43 13 l31 -1 -35 -13
-35 -13 59 -1 c53 -1 57 1 45 15 -12 15 -9 16 31 9 25 -4 53 -11 62 -16 22
-12 348 -11 328 0 -18 11 -85 24 -117 23 -30 0 -20 14 14 21 17 3 49 -5 90
-24 59 -27 72 -29 188 -29 69 0 126 3 126 8 1 4 3 18 5 32 1 14 5 39 7 57 2
18 14 40 26 50 22 18 20 18 -61 16 -51 -1 -73 1 -58 6 14 4 56 9 94 10 63 2
106 15 106 33 0 8 -62 2 -90 -9 -27 -10 -190 -15 -190 -6 0 5 5 14 11 20 7 7
-2 9 -32 7 -23 -2 -40 -2 -38 -1 29 21 60 37 55 28 -9 -14 -11 -14 48 4 27 8
70 15 96 15 67 0 140 11 135 20 -3 5 7 5 22 1 20 -5 31 -3 39 7 6 8 16 12 22
8 19 -11 14 -49 -13 -100 l-25 -46 33 16 c41 21 48 32 42 69 -3 17 -1 36 4 44
14 22 40 -8 30 -34 -12 -30 -10 -35 6 -29 22 9 12 -62 -13 -90 -11 -11 -25
-30 -31 -41 -8 -13 -11 -14 -7 -3 3 9 -2 19 -11 22 -19 8 -10 19 19 23 26 4
34 10 25 19 -4 4 -15 1 -24 -7 -10 -7 -6 0 9 17 36 39 35 47 -1 26 -38 -22
-50 -49 -47 -106 3 -50 -17 -83 -34 -56 -4 7 -6 19 -4 25 4 9 -7 12 -35 10
-47 -2 -54 12 -21 45 30 30 24 43 -6 15 -15 -14 -31 -25 -36 -25 -14 0 -30
-52 -23 -77 5 -23 6 -23 188 -23 100 0 188 4 196 9 10 7 11 13 2 29 -10 19 -8
22 12 27 26 7 52 51 62 108 6 29 0 51 -25 106 -18 39 -37 71 -42 71 -22 0 -34
29 -34 85 -1 36 -8 75 -18 97 -12 24 -16 48 -12 64 4 14 3 23 -2 20 -19 -12
-67 72 -77 134 -3 19 -28 73 -55 120 -61 103 -71 137 -63 211 5 51 4 58 -16
68 -12 7 -25 10 -29 7 -4 -2 -23 21 -42 51 -28 43 -47 61 -92 84 -56 28 -57
28 -60 7 -4 -25 -28 -37 -28 -14 0 9 -4 16 -10 16 -5 0 -9 3 -9 8 3 19 -2 23
-16 12 -21 -18 -19 0 10 62 28 61 34 151 18 273 -6 43 -6 72 0 76 5 4 0 16
-12 28 -28 28 -27 39 6 43 l28 3 -1 83 c-1 45 1 82 5 82 3 0 31 -37 62 -83
l55 -82 52 -3 c29 -2 52 0 52 3 0 17 -66 115 -78 115 -7 0 -11 4 -7 10 3 5 0
17 -6 28 -10 15 -6 23 20 49 25 25 31 40 31 73 0 22 -7 54 -15 70 -25 48 -61
60 -178 60 l-104 0 4 -102 c2 -56 8 -107 14 -114 7 -8 6 -13 -1 -16 -6 -2 -12
-14 -13 -26 -1 -21 -2 -22 -14 -6 -7 10 -13 21 -13 26 0 4 -7 8 -15 8 -8 0
-15 4 -15 9 0 21 -42 22 -81 2 -53 -28 -60 -27 -54 10 9 52 32 97 55 109 26
14 34 8 35 -28 0 -24 4 -27 35 -27 l35 0 3 79 3 79 -66 -5 c-74 -6 -117 -30
-155 -86 -34 -49 -39 -134 -11 -197 16 -36 18 -51 10 -61 -19 -23 -27 -17 -68
49 l-40 62 29 28 c17 15 33 39 36 52 13 50 -22 125 -57 125 -11 0 -18 4 -15 9
9 14 -32 21 -131 21 l-93 0 0 -55z m582 -1022 c7 -6 25 -13 41 -17 25 -6 39
-36 17 -36 -6 0 -9 -12 -8 -27 3 -24 -1 -28 -22 -29 -14 0 -37 -8 -50 -17 -30
-21 -49 -22 -57 -1 -3 8 -12 13 -20 10 -8 -4 -36 16 -69 50 -30 31 -53 58 -52
59 30 24 192 30 220 8z m-215 -95 c24 -23 43 -49 43 -58 0 -9 -17 4 -40 30
-22 25 -37 38 -34 29 3 -10 1 -20 -5 -24 -16 -9 -14 -18 11 -44 17 -19 19 -25
7 -32 -8 -4 -29 -19 -48 -33 -44 -33 -61 -33 -31 -1 29 31 7 34 -30 5 -14 -11
-31 -20 -39 -20 -7 0 -36 -17 -64 -37 -28 -21 -63 -44 -78 -53 -15 -8 -70 -44
-122 -79 -75 -51 -97 -72 -105 -98 -6 -18 -6 -31 -1 -27 5 3 9 -1 9 -8 0 -7 6
-2 13 11 6 13 15 22 18 20 4 -2 15 6 25 18 11 12 43 35 72 52 44 26 52 28 52
13 0 -26 -8 -33 -91 -87 -42 -28 -86 -64 -97 -81 -18 -28 -19 -31 -3 -42 9 -6
12 -11 6 -11 -5 1 -21 0 -35 -1 -14 -1 14 -8 62 -15 90 -13 124 -22 116 -30
-3 -3 -38 1 -77 10 -77 16 -121 12 -121 -11 0 -9 11 -14 33 -14 18 0 57 -6 87
-14 30 -8 80 -19 111 -25 63 -13 68 -17 177 -119 l77 -74 -80 37 c-44 20 -97
44 -117 52 -21 8 -38 19 -38 23 0 12 -54 19 -67 8 -7 -6 -31 -7 -55 -3 -31 4
-39 3 -28 -4 12 -9 11 -11 -7 -11 -17 0 -23 6 -23 21 0 20 3 21 58 14 72 -9
66 -2 -18 20 -93 24 -167 27 -174 8 -5 -12 -9 -13 -20 -4 -11 9 -12 6 -8 -14
5 -31 -4 -32 -29 -2 -10 12 -18 17 -19 11 0 -6 3 -14 7 -17 10 -11 13 -57 3
-57 -5 0 -20 5 -34 11 -33 15 -52 1 -61 -47 -5 -29 -9 -34 -26 -29 -15 5 -19
2 -19 -19 0 -14 -4 -26 -9 -26 -15 0 -42 31 -36 40 3 5 14 40 24 77 42 156
110 243 190 243 39 0 40 1 36 28 -11 74 -15 161 -6 167 6 3 20 20 33 37 12 17
17 28 11 25 -6 -4 -13 -2 -16 5 -2 7 -3 5 -1 -5 1 -9 -1 -15 -6 -12 -18 11
-18 87 0 128 10 23 20 54 22 69 6 45 33 57 128 58 67 0 92 -4 118 -20 17 -11
32 -22 32 -25 0 -4 -4 -4 -9 -1 -4 3 -13 -6 -19 -19 -7 -14 -16 -25 -22 -25
-5 0 -10 -6 -10 -14 0 -15 -73 -46 -108 -46 -13 0 -21 -4 -18 -9 3 -5 -12 -20
-34 -35 -22 -14 -40 -29 -40 -31 0 -7 33 11 82 42 25 17 61 28 114 34 90 12
141 41 251 144 37 35 77 64 88 65 10 0 39 -19 62 -42z m357 -170 c8 -18 22
-50 31 -72 9 -21 15 -49 12 -62 -3 -16 0 -24 10 -24 8 0 11 -5 8 -11 -8 -12
23 -49 41 -49 7 0 31 -19 54 -42 33 -35 40 -49 40 -81 0 -35 2 -38 16 -26 14
11 18 11 29 -4 13 -18 8 -70 -6 -61 -5 3 -9 -2 -9 -11 0 -10 5 -13 13 -9 6 4
3 -2 -7 -15 -11 -12 -22 -17 -25 -12 -6 9 -67 4 -101 -9 -3 -1 -9 -2 -13 -1
-4 1 -33 -6 -63 -15 -31 -9 -63 -14 -73 -11 -9 2 -68 0 -131 -5 -151 -11 -176
-7 -182 33 -3 16 -1 32 3 35 4 2 11 26 14 52 4 26 9 54 12 62 4 8 5 21 4 29
-1 7 2 10 8 7 6 -4 13 5 17 19 3 14 15 30 25 36 12 6 19 21 19 39 0 17 5 30
10 30 5 0 9 3 8 8 -5 18 49 101 90 137 81 72 125 82 146 33z"/>
<path d="M1597 2128 c25 -46 54 -98 65 -116 17 -27 20 -49 19 -114 -2 -91 2
-98 62 -98 44 0 58 21 33 49 -20 22 -21 41 -1 41 11 0 15 12 15 51 0 45 8 66
60 156 33 58 60 107 60 109 0 2 -26 4 -58 4 l-58 0 -28 -60 c-16 -33 -32 -60
-35 -60 -4 0 -19 27 -34 60 l-28 60 -59 0 -59 0 46 -82z"/>
<path d="M1907 2165 l-26 -45 40 0 c21 0 39 -3 39 -7 -1 -5 -19 -20 -40 -35
-35 -24 -40 -33 -40 -66 l0 -38 58 4 c45 3 62 0 75 -13 22 -21 22 -48 0 -67
-34 -30 -58 -30 -117 1 l-56 30 0 -43 c0 -47 13 -64 68 -86 38 -15 95 -9 147
16 47 22 80 88 71 139 -7 37 -56 85 -87 85 -32 0 -22 18 26 46 44 25 45 27 45
75 l0 49 -89 0 -89 0 -25 -45z"/>
<path d="M481 1831 c-8 -10 -12 -21 -10 -24 8 -9 -33 -46 -45 -41 -7 3 -30 -5
-51 -18 -32 -18 -38 -19 -32 -5 3 9 2 19 -3 22 -6 4 -10 1 -10 -6 0 -7 -3 -9
-7 -6 -3 4 -12 2 -20 -4 -17 -14 -17 3 0 20 6 7 -7 4 -31 -8 -24 -12 -42 -28
-42 -38 0 -24 -23 -83 -32 -83 -4 0 -8 -10 -8 -21 0 -16 5 -20 19 -16 13 3 21
-1 24 -14 5 -20 27 -27 27 -9 0 6 -4 10 -9 10 -17 0 -19 53 -4 69 14 13 15 13
9 -7 -5 -16 -3 -22 8 -22 12 0 14 -10 11 -50 -2 -27 0 -50 5 -50 5 0 4 -15 -1
-32 -5 -18 -9 -47 -9 -63 0 -17 -9 -48 -20 -70 -14 -27 -20 -59 -20 -101 0
-86 11 -159 21 -142 5 7 6 28 3 46 -12 64 34 27 52 -42 l11 -41 17 60 c14 47
16 67 7 95 -8 26 -7 46 1 75 9 28 9 40 1 42 -12 4 -6 43 7 43 23 0 31 80 11
104 -7 9 -11 22 -8 30 3 8 1 17 -6 19 -8 3 -6 10 6 23 16 17 17 17 11 2 -9
-25 4 -22 27 5 12 14 17 16 13 6 -3 -10 0 -20 7 -25 8 -4 10 -3 5 4 -4 7 -3
12 3 12 15 0 23 -18 11 -25 -5 -3 -10 -11 -10 -18 0 -18 20 6 25 30 2 12 11
33 20 47 14 21 15 29 5 41 -7 8 -16 13 -20 10 -4 -3 -10 1 -13 9 -4 9 -15 13
-29 10 -13 -2 -17 -2 -10 2 17 8 15 34 -3 34 -8 0 -15 5 -15 10 0 15 33 12 58
-6 18 -13 26 -13 38 -3 8 6 17 9 21 5 3 -3 1 -6 -5 -6 -17 0 -15 -11 6 -38 16
-21 21 -22 45 -11 15 7 27 19 27 27 0 12 -6 10 -25 -8 -14 -13 -25 -19 -25
-12 0 6 14 22 31 35 24 18 30 30 25 43 -7 17 -9 17 -26 -6 -14 -17 -20 -20
-20 -9 0 8 6 21 13 28 10 10 9 15 -5 25 -10 7 -15 16 -12 19 6 5 -19 37 -28
37 -2 0 -10 -9 -17 -19z"/>
<path d="M655 1749 c-4 -6 -13 -8 -21 -5 -8 3 -14 -1 -14 -9 0 -8 -8 -19 -17
-24 -15 -9 -13 -11 14 -17 18 -3 30 -11 27 -16 -3 -5 -15 -6 -27 -3 -12 2 -16
2 -9 -1 6 -3 9 -11 5 -17 -4 -7 0 -8 13 -3 38 16 54 18 54 7 0 -6 -4 -11 -10
-11 -5 0 -10 -4 -10 -10 0 -14 28 -12 33 3 2 6 2 0 0 -15 -4 -21 0 -28 12 -28
9 0 13 5 10 10 -3 6 -1 10 4 10 6 0 11 -5 11 -11 0 -5 5 -7 10 -4 6 3 10 1 10
-4 0 -20 29 -11 41 12 11 20 11 21 -4 8 -15 -12 -16 -10 -6 18 6 17 17 31 24
31 7 0 18 6 24 14 9 10 8 15 -4 20 -8 3 -15 11 -15 17 0 8 4 8 15 -1 18 -15
36 -5 28 16 -7 19 -69 11 -95 -13 -16 -15 -18 -15 -18 0 0 10 -6 16 -12 15 -7
-2 -12 3 -10 10 2 10 -2 10 -18 2 -11 -6 -20 -16 -20 -23 0 -7 -9 -13 -20 -13
-26 0 -25 10 3 29 12 9 17 16 10 16 -6 1 -15 -4 -18 -10z"/>
<path d="M0 856 c0 -50 6 -76 25 -112 14 -26 25 -55 25 -64 0 -9 8 -24 18 -33
15 -14 19 -14 37 1 22 18 22 47 0 72 -18 21 -28 59 -28 100 1 29 0 31 -6 11
l-7 -24 -17 26 c-10 15 -20 41 -24 57 -10 52 -23 33 -23 -34z"/>
<path d="M2217 94 c-3 -3 -36 -6 -74 -6 -68 0 -103 -10 -103 -29 0 -6 5 -7 10
-4 6 3 10 2 10 -3 0 -13 -25 -33 -32 -26 -3 2 -8 -2 -11 -11 -5 -12 3 -15 47
-15 40 0 55 4 60 16 3 8 11 12 17 8 8 -4 7 -9 -2 -15 -9 -5 10 -9 49 -9 l62 0
0 44 c0 28 -5 46 -14 49 -8 3 -16 3 -19 1z"/>
</g>
</svg>
