<?xml version="1.0" standalone="no"?>
<!DOCTYPE svg PUBLIC "-//W3C//DTD SVG 20010904//EN"
 "http://www.w3.org/TR/2001/REC-SVG-20010904/DTD/svg10.dtd">
<svg version="1.0" xmlns="http://www.w3.org/2000/svg"
 width="225.000000pt" height="225.000000pt" viewBox="0 0 225.000000 225.000000"
 preserveAspectRatio="xMidYMid meet">
<metadata>
Created by potrace 1.15, written by Peter Selinger 2001-2017
</metadata>
<g transform="translate(0.000000,225.000000) scale(0.100000,-0.100000)"
fill="#000000" stroke="none">
<path d="M1015 2174 c-149 -21 -243 -49 -358 -105 -105 -52 -157 -89 -248
-176 -142 -136 -238 -304 -285 -499 -24 -100 -26 -121 -21 -264 5 -163 19
-235 72 -360 31 -74 89 -174 132 -226 18 -23 33 -46 33 -51 0 -6 -15 -14 -34
-17 -58 -11 -61 -20 -61 -218 0 -177 0 -180 24 -199 25 -21 90 -26 107 -9 8 8
25 7 55 -1 54 -15 87 -8 123 26 35 33 57 32 89 -5 29 -32 28 -32 135 -30 47 1
88 8 114 20 41 18 42 18 81 -2 31 -15 50 -18 86 -13 56 7 81 7 247 0 122 -5
132 -4 149 15 23 25 39 25 82 -1 41 -26 120 -22 135 6 9 15 11 15 31 -2 30
-27 87 -29 117 -5 23 19 24 19 69 -7 59 -33 122 -33 181 0 89 49 114 132 64
216 l-25 44 22 35 c16 27 20 44 15 72 -8 54 -27 63 -131 62 -124 -2 -135 -1
-135 8 0 4 20 34 45 67 59 77 138 239 165 335 53 194 47 400 -18 595 -50 147
-117 257 -226 372 -150 158 -321 254 -527 298 -70 15 -253 26 -304 19z m269
-140 c280 -53 534 -261 646 -530 35 -85 50 -164 31 -164 -7 0 -9 9 -5 25 5 21
3 25 -15 25 -12 0 -21 -4 -21 -9 0 -13 -48 -19 -59 -8 -8 8 -11 6 -11 -7 0
-12 -5 -16 -16 -12 -12 5 -14 1 -8 -16 5 -17 3 -20 -11 -14 -10 3 -23 2 -30
-4 -9 -8 -17 -6 -29 5 -19 19 -51 16 -52 -5 -1 -42 -15 -58 -44 -55 -17 2 -35
9 -42 14 -48 39 -110 81 -121 81 -8 0 -17 3 -21 7 -3 4 -14 7 -24 8 -9 1 -27
5 -39 9 -19 6 -23 4 -23 -12 0 -11 7 -23 16 -26 9 -4 13 -2 8 5 -4 7 1 10 11
7 24 -4 32 -28 10 -28 -9 0 -19 -9 -22 -20 -7 -25 -48 -52 -96 -60 -41 -8 -56
3 -36 27 11 13 10 17 -6 29 -17 13 -20 12 -26 -3 -4 -10 -5 -29 -2 -43 4 -20
2 -22 -6 -10 -7 11 -9 -13 -4 -82 6 -98 -2 -122 -26 -80 -6 9 -11 11 -11 5 0
-20 -28 -15 -33 5 -4 16 -5 16 -6 0 0 -10 8 -22 18 -28 20 -10 55 -70 46 -78
-3 -3 -26 18 -51 46 -36 39 -54 52 -76 52 -34 0 -34 -3 -6 -40 25 -34 17 -52
-11 -26 -18 16 -19 16 -23 1 -2 -12 -19 4 -52 49 -33 43 -54 62 -61 56 -6 -5
-20 -8 -30 -6 -15 2 -20 11 -19 32 0 16 -8 36 -18 45 -10 9 -23 31 -29 49 -7
18 -15 27 -18 21 -8 -12 -51 39 -51 60 0 6 -7 9 -15 5 -8 -3 -15 -2 -15 3 0 4
-13 6 -28 3 -24 -3 -31 2 -47 32 -19 35 -19 36 0 50 20 14 20 15 -4 40 -25 26
-47 26 -37 -1 4 -9 1 -13 -6 -11 -7 3 -31 41 -53 87 -23 45 -44 78 -48 75 -4
-4 -7 1 -7 12 0 23 -56 114 -70 114 -13 0 -13 -16 1 -43 11 -20 9 -20 -13 3
-31 32 -26 41 59 120 74 67 170 129 260 166 67 27 93 30 93 9 0 -8 -5 -15 -12
-15 -9 0 -9 -3 0 -12 7 -7 12 -21 12 -31 0 -20 29 -77 45 -89 5 -4 5 -15 -3
-30 -36 -70 -36 -110 -1 -101 10 3 19 1 19 -5 0 -6 9 -8 20 -5 16 4 20 0 20
-19 0 -13 5 -29 11 -35 9 -9 8 -18 -5 -38 -15 -22 -15 -29 -4 -43 9 -11 10
-14 1 -8 -25 14 -4 -50 21 -66 7 -5 7 -22 0 -56 -10 -48 -9 -50 27 -92 24 -27
47 -44 64 -46 15 -2 37 -14 50 -28 15 -16 26 -22 30 -15 4 5 14 9 23 7 10 -2
30 10 45 27 25 27 27 36 25 94 -2 48 1 66 11 69 8 3 11 0 7 -6 -4 -6 2 -8 14
-5 15 4 18 9 10 18 -21 25 2 21 31 -6 25 -24 39 -28 102 -31 82 -4 115 5 96
28 -6 8 -8 14 -3 14 5 1 -2 10 -16 21 -18 16 -25 31 -25 60 0 24 6 44 15 49
20 12 2 61 -27 75 -19 10 -20 12 -5 21 15 10 14 12 -8 24 -17 9 -25 10 -28 1
-8 -24 -20 -9 -17 22 3 25 2 28 -6 15 -5 -10 -11 -31 -12 -48 -1 -16 -5 -30
-9 -30 -7 0 -47 -34 -85 -72 -13 -12 -23 -30 -23 -39 0 -9 -6 -22 -14 -28 -8
-7 -11 -22 -8 -39 4 -23 3 -25 -10 -15 -10 9 -18 9 -25 2 -8 -8 -16 -8 -30 1
-15 9 -15 11 -1 6 14 -4 16 -1 8 19 -7 19 -5 29 9 42 10 10 24 29 31 41 11 22
10 23 -8 18 -11 -4 -23 -2 -27 4 -3 5 -1 10 4 10 6 0 11 17 11 38 0 42 7 56
33 65 9 3 17 11 17 16 0 6 -6 8 -14 5 -11 -4 -13 0 -9 15 3 14 0 23 -11 27
-17 7 -23 54 -6 54 6 0 10 12 9 28 -1 15 1 43 5 64 9 39 8 40 -64 52 -34 6
-66 38 -55 55 6 11 74 5 179 -15z m-787 -491 c21 -35 41 -63 45 -63 4 0 15
-14 24 -32 15 -29 15 -32 -1 -44 -16 -12 -14 -17 19 -72 20 -33 36 -71 36 -85
0 -14 7 -32 14 -40 8 -8 43 -61 77 -118 34 -57 63 -105 64 -107 1 -1 19 5 39
13 38 16 38 16 67 -14 31 -33 32 -37 29 -90 -2 -43 -41 -87 -133 -149 -92 -63
-108 -72 -134 -72 -21 0 -71 -53 -66 -69 1 -4 -32 -13 -74 -19 l-76 -12 -23
27 c-29 33 -101 152 -126 206 -50 110 -84 302 -73 417 12 117 44 232 95 338
28 56 55 102 60 102 6 0 10 6 10 13 0 7 5 18 12 25 9 9 19 1 44 -40 18 -29 50
-81 71 -115z m1449 -681 c-23 -64 -76 -163 -85 -157 -5 2 -14 -2 -21 -10 -9
-10 -9 -15 -1 -15 6 0 11 5 11 12 0 6 3 9 6 5 3 -3 -11 -31 -32 -61 -45 -64
-95 -92 -148 -83 -28 4 -35 2 -39 -15 -4 -14 -12 -19 -29 -16 -35 5 -34 39 3
73 31 30 31 30 25 5 -6 -23 -6 -24 7 -7 9 10 21 15 31 11 9 -3 16 -1 16 5 0 6
-10 11 -22 11 l-23 0 25 20 c15 12 36 19 51 17 16 -2 26 2 26 10 0 7 -6 13
-14 13 -18 0 -16 9 8 50 19 32 59 77 59 67 0 -3 21 17 48 43 26 26 56 50 67
53 43 10 45 9 31 -31z m-1255 -327 c61 -3 118 -9 127 -14 10 -6 23 -6 35 0 21
12 57 3 57 -15 0 -7 -15 -12 -37 -13 -209 -7 -241 -11 -264 -32 -13 -11 -26
-21 -30 -21 -10 0 -97 73 -101 85 -4 12 49 25 80 19 12 -3 72 -7 133 -9z
m-163 -127 l-3 -43 -78 0 c-60 0 -76 -3 -72 -13 3 -8 5 -22 5 -33 0 -16 7 -19
50 -19 l51 0 -3 -37 c-4 -46 -12 -53 -60 -53 l-37 0 -3 -67 -3 -68 -52 -3
c-48 -3 -53 -1 -53 18 0 12 5 30 10 41 7 13 7 19 0 19 -6 0 -10 53 -10 150 l0
150 131 0 130 0 -3 -42z m232 -3 c0 -41 -2 -45 -24 -45 -14 0 -27 4 -30 9 -8
12 -41 3 -60 -18 -8 -9 -17 -39 -19 -68 -5 -50 -4 -51 17 -40 11 7 23 15 26
18 12 14 80 40 90 34 10 -6 13 -169 3 -207 -3 -14 -15 -18 -54 -18 l-49 0 0
45 0 45 -45 0 c-44 0 -46 -2 -67 -45 l-22 -45 -54 0 c-29 0 -52 3 -50 8 21 49
113 200 120 196 4 -3 8 4 8 15 0 11 17 52 38 91 l37 70 68 0 67 0 0 -45z m238
28 c2 -7 11 -13 21 -13 20 0 51 -58 51 -95 0 -13 -13 -40 -30 -58 -16 -19 -30
-38 -30 -42 0 -3 20 -38 45 -76 25 -38 45 -72 45 -74 0 -3 -24 -5 -52 -4 l-53
0 -52 82 -53 82 0 -76 c0 -86 -3 -89 -71 -89 l-39 0 0 115 c0 85 3 115 13 115
8 0 7 4 -3 10 -12 7 -8 10 15 11 17 0 24 3 17 6 -6 2 -10 9 -6 14 3 5 -4 9
-15 9 -19 0 -21 6 -21 51 l0 51 107 -4 c74 -2 108 -7 111 -15z m320 -55 l-3
-73 -37 -3 c-37 -3 -38 -2 -38 28 0 63 -63 12 -76 -63 -6 -34 -3 -41 34 -77
33 -34 46 -40 81 -40 45 0 49 -8 24 -48 -17 -26 -17 -26 0 -13 15 12 17 12 11
-3 -13 -33 -128 -13 -177 32 -61 55 -76 173 -32 247 31 55 90 85 163 85 l53 0
-3 -72z m266 38 c29 -27 36 -41 36 -72 0 -39 -31 -104 -50 -104 -17 0 -11 -14
40 -93 28 -42 50 -78 50 -79 0 -2 -24 -1 -52 0 l-53 4 -55 80 -55 81 -3 -82
-3 -81 -48 0 -49 0 -1 71 c0 39 4 79 9 90 7 12 7 20 0 24 -6 3 -10 48 -10 101
l0 94 104 0 105 0 35 -34z m143 -21 c15 -30 30 -55 33 -55 3 0 19 25 35 55
l28 55 54 0 53 0 -32 -57 c-17 -32 -42 -75 -56 -96 -14 -24 -24 -57 -26 -88
-1 -34 -8 -53 -21 -63 -18 -13 -18 -14 3 -32 38 -32 28 -45 -30 -42 l-53 3 -5
90 c-6 96 -1 83 -102 253 l-20 32 56 0 56 0 27 -55z"/>
</g>
</svg>
