<?xml version="1.0" standalone="no"?>
<!DOCTYPE svg PUBLIC "-//W3C//DTD SVG 20010904//EN"
 "http://www.w3.org/TR/2001/REC-SVG-20010904/DTD/svg10.dtd">
<svg version="1.0" xmlns="http://www.w3.org/2000/svg"
 width="225.000000pt" height="225.000000pt" viewBox="0 0 225.000000 225.000000"
 preserveAspectRatio="xMidYMid meet">
<metadata>
Created by potrace 1.15, written by Peter Selinger 2001-2017
</metadata>
<g transform="translate(0.000000,225.000000) scale(0.100000,-0.100000)"
fill="#000000" stroke="none">
<path d="M115 2240 c-5 -5 -23 -21 -40 -34 l-30 -25 25 -1 c62 -3 101 -8 107
-14 8 -8 -35 -45 -53 -46 -6 0 -28 -13 -49 -30 -21 -16 -46 -30 -56 -30 -17 0
-19 -8 -19 -65 0 -51 4 -67 16 -72 26 -10 34 -45 16 -75 -9 -16 -20 -28 -24
-28 -12 0 -9 -266 4 -317 8 -35 8 -50 0 -64 -7 -11 -12 -60 -12 -118 l0 -98
51 -7 c28 -4 62 -14 75 -22 l23 -16 -19 -38 c-26 -51 -70 -63 -106 -29 l-24
22 0 -566 0 -567 28 0 c22 0 32 7 41 28 16 33 144 203 185 244 26 26 35 29 69
25 21 -3 47 -13 57 -22 14 -12 27 -15 50 -10 25 5 47 -1 106 -29 40 -20 73
-40 72 -44 -1 -4 6 -19 15 -33 10 -15 20 -44 23 -65 3 -30 2 -34 -5 -19 -5 11
-10 14 -10 8 -1 -18 -36 -16 -51 2 -11 13 -15 13 -21 3 -7 -10 -9 -10 -9 1 0
11 -5 10 -20 -4 -20 -19 -23 -16 -21 21 2 16 -7 23 -41 33 -24 7 -59 22 -78
33 l-35 19 30 -6 c24 -4 27 -3 13 5 -10 6 -18 19 -18 28 0 13 -2 14 -8 4 -5
-7 -16 -10 -25 -6 -10 3 -17 1 -17 -5 0 -6 5 -11 10 -11 22 0 8 -15 -16 -16
-19 -2 -24 2 -20 13 5 11 2 13 -11 8 -39 -16 -56 -15 -26 2 28 14 44 33 29 33
-23 0 -116 -72 -116 -90 0 -6 -13 -29 -30 -52 -17 -22 -30 -46 -30 -51 0 -6
-7 -19 -17 -29 -15 -17 -15 -18 9 -18 17 0 43 18 80 55 37 37 63 55 80 55 36
0 132 -35 205 -75 51 -28 75 -35 119 -35 50 0 55 2 49 19 -3 11 -1 22 5 26 6
4 10 -4 10 -19 l0 -26 150 0 150 0 0 30 c0 26 -3 30 -29 30 -15 0 -39 8 -52
19 -13 10 -44 22 -69 26 -44 7 -80 29 -80 48 0 6 -10 24 -23 41 -13 17 -31 46
-40 64 -15 30 -15 32 4 32 10 0 19 -4 19 -10 0 -5 7 -10 15 -10 8 0 19 -9 24
-19 6 -10 24 -24 41 -30 l31 -10 -6 122 c-4 67 -9 130 -11 140 -3 9 0 17 7 17
7 0 10 -3 6 -6 -7 -7 36 -69 70 -100 13 -12 23 -25 23 -29 0 -4 11 -18 25 -31
14 -13 25 -28 25 -34 0 -5 4 -10 9 -10 5 0 9 -13 9 -29 -1 -15 11 -78 27 -140
l27 -111 603 0 c332 0 610 3 619 6 14 5 16 42 16 308 -1 257 -3 304 -16 321
-15 19 -15 16 -10 -35 7 -59 -6 -53 -19 10 -4 19 -23 50 -41 68 -19 19 -34 41
-34 51 -1 24 -38 103 -63 130 l-22 24 27 -7 c15 -3 29 -2 32 3 9 14 -54 25
-67 12 -8 -8 -3 -20 20 -43 17 -18 35 -42 41 -53 16 -32 25 -105 12 -105 -5 0
-10 7 -10 15 0 8 -5 15 -11 15 -5 0 -8 4 -5 8 2 4 1 14 -5 22 -7 12 -9 10 -9
-8 0 -35 -15 -18 -18 20 -6 78 -72 164 -142 183 -16 4 -7 -6 25 -27 36 -24 58
-48 77 -87 32 -62 35 -105 13 -159 -9 -20 -18 -52 -21 -72 -6 -38 -31 -73 -46
-64 -5 3 -14 -8 -21 -25 -6 -17 -14 -31 -18 -31 -7 0 -31 48 -35 72 -4 17 21
32 37 22 17 -10 9 8 -11 24 -11 10 -40 57 -64 105 l-44 89 -15 -27 -14 -28 -7
42 c-3 22 -10 40 -14 38 -8 -2 -12 6 -12 29 0 8 4 13 9 10 5 -3 8 18 7 48 -1
45 -4 52 -18 48 -12 -3 -18 1 -18 13 0 15 -3 15 -15 5 -13 -11 -13 -15 -3 -21
7 -5 9 -9 4 -9 -5 0 -17 7 -27 15 -15 14 -18 14 -33 0 -9 -9 -17 -14 -17 -11
-1 3 -2 10 -3 15 -2 14 -15 25 -32 27 -13 2 -14 -5 -9 -37 6 -33 4 -39 -12
-40 -16 0 -16 -1 2 -9 11 -5 15 -9 9 -9 -7 -1 -10 -14 -8 -32 2 -19 0 -28 -7
-23 -6 3 -8 12 -5 20 3 8 0 11 -10 7 -7 -3 -14 -11 -14 -19 0 -8 -4 -14 -10
-14 -5 0 -10 5 -10 11 0 8 -5 8 -15 -1 -8 -7 -15 -19 -15 -26 0 -8 -5 -14 -11
-14 -5 0 -8 -4 -5 -9 3 -4 17 -6 31 -4 13 3 23 9 20 13 -6 9 21 22 53 26 13 2
25 -3 29 -12 4 -10 9 -11 18 -4 8 7 12 5 12 -5 0 -8 -5 -11 -10 -8 -6 4 -8 -1
-4 -11 10 -25 -12 -9 -24 18 -8 17 -9 15 -5 -11 4 -25 2 -31 -9 -26 -8 3 -15
0 -15 -6 0 -6 5 -11 10 -11 14 0 12 -37 -2 -43 -8 -3 -6 -6 5 -6 14 -1 15 -4
6 -20 -8 -12 -19 -16 -32 -13 -14 4 -18 2 -12 -7 6 -10 2 -11 -16 -6 -34 11
-55 43 -50 77 0 3 -14 2 -32 -3 -43 -12 -57 -11 -51 4 3 8 -4 13 -17 14 -13 1
-19 -3 -16 -11 4 -9 -2 -12 -17 -9 -21 4 -22 9 -16 44 8 43 5 50 -17 42 -12
-5 -13 -2 -5 13 5 10 7 33 5 50 -4 27 -1 32 21 38 14 3 26 11 26 16 0 6 9 6
23 1 12 -5 31 -5 42 -1 19 7 19 7 -2 14 -13 4 -27 4 -33 1 -12 -8 -13 5 -1 24
6 9 18 11 35 7 22 -5 26 -3 26 14 0 11 -7 20 -15 20 -8 0 -15 6 -15 13 -1 6
-3 34 -5 62 -3 32 0 52 8 57 9 6 9 10 -3 18 -13 9 -12 12 4 25 19 14 19 15 1
35 -18 19 -18 20 1 20 15 0 16 2 5 9 -11 7 -11 9 0 13 12 4 12 8 1 20 -7 9
-12 20 -11 24 5 19 -14 64 -26 64 -7 0 -18 7 -25 15 -7 8 -15 13 -19 10 -4 -2
-20 7 -36 21 -33 28 -54 30 -95 9 -32 -16 -38 -8 -20 25 6 11 6 28 1 42 -8 21
-10 18 -21 -25 -7 -26 -16 -50 -21 -52 -4 -3 -6 -11 -3 -18 3 -8 -12 -17 -41
-25 -61 -16 -78 -15 -71 3 3 8 2 14 -2 14 -19 -3 -25 2 -12 11 13 8 12 10 -2
10 -30 0 -20 26 17 46 34 18 46 34 25 34 -5 0 -10 -4 -10 -9 0 -5 -7 -12 -16
-15 -12 -4 -15 -2 -11 9 8 19 -13 31 -24 14 -6 -11 -11 -11 -21 -1 -9 9 -7 16
10 32 31 29 27 40 -12 40 -19 0 -38 5 -41 10 -3 6 4 10 15 10 13 0 24 8 27 20
3 11 10 20 15 20 5 0 6 5 3 10 -4 6 -11 8 -16 5 -5 -4 -9 -1 -9 4 0 6 -9 11
-20 11 -14 0 -20 6 -18 17 2 11 -8 19 -32 26 l-35 10 30 7 c30 8 29 8 -7 9
-23 1 -38 6 -38 14 0 7 -9 18 -20 25 -23 14 -27 42 -6 42 14 0 30 45 31 85 0
13 12 26 32 35 18 8 33 21 33 28 0 6 9 12 20 12 11 0 23 7 27 15 8 23 56 75
68 75 5 0 10 11 10 24 0 22 -4 24 -42 22 -23 -1 -40 1 -37 6 3 4 0 8 -5 8 -6
0 -11 -4 -11 -10 0 -5 -8 -10 -17 -11 -15 0 -15 -2 2 -8 19 -8 19 -8 -2 -15
-13 -4 -23 -14 -23 -21 0 -15 -30 -35 -50 -35 -7 0 -10 7 -6 15 3 10 -1 15
-12 15 -14 0 -14 2 -3 9 12 8 13 12 1 25 -11 14 -10 16 4 10 9 -3 16 -2 16 4
0 6 -5 12 -10 14 -7 2 -5 16 6 37 12 25 19 30 25 20 6 -10 9 -5 9 14 0 18 10
37 28 52 l27 24 -307 1 c-292 0 -309 -1 -342 -21 -30 -17 -40 -19 -75 -9 -22
6 -43 15 -46 20 -8 13 -57 12 -70 0z m133 -252 c17 -17 15 -47 -3 -54 -8 -4
-13 -10 -10 -14 7 -11 -27 -68 -43 -75 -22 -8 -57 5 -71 27 -19 31 -16 100 5
115 22 16 106 17 122 1z m406 -188 c17 -16 17 -21 6 -35 -17 -20 -83 -55 -105
-55 -9 0 -15 -7 -13 -17 4 -22 -48 -36 -86 -23 -23 8 -27 7 -22 -5 3 -8 2 -15
-3 -15 -38 0 8 59 48 61 l26 1 -25 8 c-19 6 -11 8 35 10 75 2 129 19 133 44 4
17 3 18 -19 2 -44 -31 -166 -12 -145 22 21 35 136 36 170 2z m55 -327 c6 -93
16 -224 22 -292 9 -100 9 -125 -2 -132 -8 -4 -20 -3 -28 4 -12 10 -14 8 -9
-10 4 -13 0 -27 -8 -34 -12 -9 -14 -5 -14 25 0 24 -5 36 -14 36 -16 0 -28 89
-14 104 4 6 8 1 8 -11 0 -11 7 -26 15 -33 11 -9 15 -9 15 -1 0 7 8 11 17 9 21
-4 25 29 6 53 -16 19 -34 109 -22 109 5 0 9 12 9 26 0 35 -23 26 -31 -12 l-7
-29 -1 27 c0 15 4 30 10 33 6 4 8 13 5 21 -3 8 0 13 7 11 7 -1 11 8 10 23 -5
80 -8 96 -17 102 -7 5 -3 8 7 8 16 0 19 7 17 48 -3 54 -2 82 4 82 1 0 8 -75
15 -167z m-491 131 c22 -15 30 -58 13 -69 -5 -3 -9 -19 -9 -35 2 -74 -98 -104
-132 -39 -23 42 43 159 89 159 9 0 27 -7 39 -16z m267 -929 c12 -1 21 -10 22
-21 4 -31 -23 -56 -67 -61 -36 -4 -40 -3 -40 16 0 18 -3 20 -19 12 -10 -6 -21
-7 -25 -4 -3 4 -17 -4 -31 -17 -19 -17 -22 -27 -15 -41 15 -27 12 -36 -10 -35
-20 1 -47 -36 -65 -89 -5 -12 -9 -15 -12 -8 -8 21 73 176 110 211 37 36 81 53
112 44 11 -3 29 -6 40 -7z"/>
<path d="M1367 1868 c-15 -33 -16 -43 -5 -56 7 -9 8 -13 2 -9 -17 10 -23 -38
-10 -82 7 -25 16 -37 27 -36 11 2 14 -4 11 -24 -3 -21 2 -30 23 -39 36 -16 36
-16 19 23 -19 46 -18 48 12 41 17 -5 23 -3 19 4 -3 5 -21 10 -38 11 l-32 1 26
9 c22 8 26 15 23 42 -1 18 -4 33 -5 35 -1 1 -2 5 -3 10 -1 4 -5 13 -10 21 -7
10 -3 12 15 7 24 -7 24 -7 -1 8 -14 9 -20 16 -15 16 6 0 2 5 -7 11 -10 5 -18
16 -18 24 0 30 -17 22 -33 -17z"/>
<path d="M1795 1480 c-5 -8 -25 -11 -57 -8 -41 4 -48 3 -44 -11 15 -48 17 -69
8 -75 -14 -8 2 -63 25 -89 13 -15 15 -21 6 -24 -22 -8 -15 -43 7 -43 16 0 19
-4 12 -17 -5 -10 -7 -50 -4 -90 l4 -72 37 26 c57 42 81 74 81 105 0 21 -6 31
-20 35 -11 3 -20 10 -20 15 0 5 -11 19 -25 32 l-25 23 23 20 c40 36 53 35 49
-3 -4 -35 11 -47 22 -18 3 9 5 43 5 77 -1 47 -3 55 -8 32 -7 -30 -7 -30 -14
11 -7 44 -49 94 -62 74z"/>
</g>
</svg>
