<?xml version="1.0" standalone="no"?>
<!DOCTYPE svg PUBLIC "-//W3C//DTD SVG 20010904//EN"
 "http://www.w3.org/TR/2001/REC-SVG-20010904/DTD/svg10.dtd">
<svg version="1.0" xmlns="http://www.w3.org/2000/svg"
 width="225.000000pt" height="225.000000pt" viewBox="0 0 225.000000 225.000000"
 preserveAspectRatio="xMidYMid meet">
<metadata>
Created by potrace 1.15, written by Peter Selinger 2001-2017
</metadata>
<g transform="translate(0.000000,225.000000) scale(0.100000,-0.100000)"
fill="#000000" stroke="none">
<path d="M77 2075 c-69 -19 -76 -33 -77 -147 0 -91 11 -129 29 -100 4 6 31 18
61 25 l55 14 3 57 c2 31 7 56 11 56 5 0 6 -11 3 -25 -4 -21 0 -25 19 -25 23
-1 23 -1 5 -15 -11 -8 -15 -15 -9 -15 6 0 25 16 42 35 42 48 41 87 -1 126 -36
32 -64 35 -141 14z"/>
<path d="M0 1811 c0 -3 7 -15 15 -25 20 -26 19 -50 0 -42 -11 4 -15 -2 -15
-28 0 -18 7 -39 15 -46 8 -7 16 -20 16 -29 1 -9 5 2 8 24 7 43 3 64 -9 45 -5
-8 -9 -7 -13 5 -4 9 -3 13 2 10 6 -3 14 3 20 12 5 10 13 14 17 10 5 -5 3 -12
-5 -16 -9 -6 -6 -13 13 -29 16 -12 22 -23 16 -27 -5 -3 -10 -1 -10 5 0 6 -4 8
-10 5 -18 -11 -10 -22 30 -40 22 -10 47 -26 56 -36 10 -11 25 -19 35 -19 15 0
14 -4 -9 -27 -39 -41 -74 -63 -100 -63 -13 0 -21 4 -17 9 3 5 -5 11 -17 13
-19 2 -22 8 -20 35 2 18 -1 41 -7 50 -8 13 -10 -14 -11 -99 0 -65 2 -118 4
-118 6 0 109 70 126 86 8 7 32 29 53 49 22 19 49 42 60 50 24 17 51 20 42 5
-8 -13 1 -13 26 0 10 6 19 17 19 25 0 8 5 15 11 15 7 0 9 9 6 21 -3 12 -2 32
3 45 6 16 6 24 -1 24 -6 0 -18 9 -28 21 -15 18 -18 19 -29 6 -11 -13 -19 -13
-63 -2 -66 18 -75 28 -19 21 60 -7 33 10 -40 25 -30 7 -60 16 -67 21 -14 11
-103 19 -103 9z"/>
<path d="M366 1677 c-11 -43 -7 -57 17 -57 13 0 62 -11 109 -25 48 -14 94 -22
104 -18 14 5 16 3 11 -11 -4 -10 -1 -19 8 -22 8 -4 15 -12 15 -20 0 -11 5 -11
25 -2 17 7 31 29 45 65 28 76 25 106 -7 66 -12 -16 -13 -15 -7 12 l6 30 -21
-33 c-12 -18 -21 -38 -21 -44 0 -7 -7 -3 -15 8 -9 14 -34 25 -77 34 -35 6 -76
16 -93 20 -77 21 -93 20 -99 -3z"/>
<path d="M1249 1656 c-13 -6 -37 -22 -52 -36 -16 -14 -34 -25 -40 -26 -7 0
-24 -2 -38 -2 l-26 -2 2 -82 c2 -62 7 -83 19 -90 9 -5 16 -17 16 -28 0 -10 4
-20 9 -22 15 -5 17 -91 3 -96 -7 -2 -12 0 -11 5 3 18 -3 47 -8 35 -2 -6 -10
-9 -16 -5 -7 4 -6 -1 2 -10 11 -14 11 -21 -3 -42 -9 -14 -23 -25 -30 -25 -11
0 -31 -40 -23 -45 1 -1 20 -9 42 -17 21 -9 40 -19 42 -24 2 -5 -26 -10 -62
-12 -53 -2 -65 0 -65 13 0 8 -7 15 -15 15 -8 0 -16 10 -17 23 -6 85 -14 109
-55 153 -23 24 -29 39 -27 70 1 22 -1 27 -3 12 -5 -30 -13 -34 -31 -16 -20 20
-26 -1 -7 -22 10 -11 15 -23 12 -27 -4 -3 -7 -1 -7 6 0 7 -9 9 -27 5 -33 -8
-58 -34 -42 -44 18 -12 6 -83 -16 -95 -27 -14 -30 -42 -5 -55 11 -6 20 -7 20
-3 0 4 5 2 12 -5 17 -17 90 -15 114 3 25 19 38 19 30 -1 -3 -8 -2 -13 3 -10 4
3 17 -1 27 -9 10 -8 14 -15 7 -15 -7 0 -15 -17 -18 -37 -3 -21 -8 -49 -11 -61
-3 -13 -1 -21 5 -18 5 3 12 -5 15 -19 4 -16 13 -25 26 -25 11 0 20 -6 20 -12
0 -8 3 -9 8 -3 9 12 74 37 67 25 -3 -5 8 -3 24 3 16 6 35 21 42 34 7 14 19 21
27 18 10 -4 13 5 12 38 -3 61 -2 63 23 74 18 9 23 18 22 49 -1 21 -7 40 -14
42 -9 3 -7 10 6 25 17 20 17 20 0 14 -11 -4 -16 -3 -12 3 3 6 13 10 21 10 8 0
14 10 14 25 0 16 6 25 15 25 8 0 15 -3 15 -7 0 -5 14 -9 31 -10 l31 -2 -6 48
c-5 36 -3 51 9 61 18 15 66 100 56 100 -3 0 -7 9 -7 19 0 11 4 17 8 15 4 -3 8
0 8 5 0 6 -5 11 -11 11 -6 0 -8 7 -5 16 3 8 2 12 -4 9 -6 -4 -17 1 -26 9 -8 9
-12 16 -7 16 4 0 1 5 -7 10 -11 7 -19 5 -27 -7 -12 -16 -13 -16 -13 1 0 9 -4
14 -10 11 -5 -3 -7 0 -4 9 7 17 -18 18 -57 2z"/>
<path d="M1990 1289 c0 -5 -4 -7 -10 -4 -7 4 -7 -3 0 -22 9 -25 8 -26 -4 -10
-14 18 -26 22 -26 9 0 -4 12 -15 28 -24 15 -10 22 -18 15 -18 -25 0 0 -30 26
-30 14 0 34 -7 44 -14 16 -13 16 -14 -4 -19 -12 -3 -18 -10 -14 -17 4 -6 1
-18 -7 -27 -11 -14 -11 -16 4 -11 19 8 33 -28 16 -39 -7 -3 -8 -1 -4 5 4 7 2
12 -3 12 -6 0 -11 -4 -11 -9 0 -19 21 -22 52 -7 17 9 32 16 33 16 1 0 22 -31
46 -70 24 -38 47 -70 51 -70 4 0 5 -6 2 -13 -3 -8 2 -20 11 -27 13 -11 15 -7
15 30 0 38 -25 100 -41 100 -4 0 -12 14 -19 30 -7 17 -16 30 -21 30 -5 0 -9 7
-9 15 0 8 6 15 13 15 8 0 8 3 -2 9 -11 7 -10 10 5 14 13 3 11 5 -8 6 -25 1
-42 21 -18 21 20 0 10 28 -16 45 -15 9 -23 12 -20 6 4 -6 3 -11 -3 -11 -5 0
-15 8 -20 18 -9 15 -10 15 -11 1 0 -12 -7 -15 -25 -11 -25 4 -34 25 -15 37 6
3 10 11 10 17 0 7 -5 6 -15 -2 -8 -6 -20 -10 -27 -7 -8 4 -7 6 5 6 21 1 22 17
1 25 -21 8 -24 8 -24 -5z"/>
<path d="M1648 1177 c-37 -40 -83 -91 -104 -114 -20 -24 -41 -43 -46 -43 -6 0
-5 7 2 15 17 20 5 32 -15 15 -8 -7 -15 -9 -15 -4 0 4 -5 3 -11 -3 -8 -8 -7
-17 3 -32 11 -18 10 -24 -14 -47 -19 -20 -31 -25 -45 -19 -23 10 -42 7 -60
-11 -8 -8 -19 -12 -24 -9 -5 4 -6 0 -3 -8 3 -8 -2 -17 -12 -21 -12 -5 -15 -2
-10 9 3 9 2 13 -4 10 -14 -9 -12 -38 3 -55 6 -8 2 -6 -10 4 -13 11 -23 14 -23
8 0 -19 -45 -81 -59 -82 -7 0 -11 -6 -8 -13 3 -8 -1 -14 -9 -14 -7 0 -11 4 -8
9 13 21 -17 5 -34 -19 -11 -15 -24 -23 -31 -19 -6 4 -8 12 -5 18 10 15 -30 -8
-46 -26 -13 -17 -37 -20 -65 -10 -14 6 -14 8 2 26 16 18 28 58 17 58 -3 0 -24
-13 -47 -28 -23 -16 -50 -31 -59 -35 -28 -10 -30 9 -3 27 23 15 27 44 4 31 -5
-4 -9 1 -9 9 0 9 -5 16 -11 16 -6 0 -3 7 5 16 9 8 16 26 16 40 0 13 4 24 9 24
6 0 7 16 4 37 -4 22 -2 34 4 30 5 -3 8 6 5 23 -3 19 -9 27 -17 23 -8 -2 -11
-11 -8 -18 9 -24 -6 -36 -27 -23 -16 10 -22 9 -36 -7 -12 -15 -14 -16 -11 -4
3 9 -3 26 -14 37 -10 12 -19 28 -19 36 0 8 -7 22 -16 31 -12 11 -13 19 -5 28
8 10 2 13 -27 12 -20 0 -44 -5 -52 -10 -69 -43 -102 -53 -136 -42 -32 10 -35
14 -30 39 7 35 -7 36 -56 3 -20 -14 -42 -25 -48 -25 -6 0 -9 -4 -5 -9 3 -5 0
-13 -6 -17 -9 -5 -10 3 -6 30 3 20 2 34 -3 31 -10 -6 -22 23 -14 36 3 5 1 9
-5 9 -5 0 -12 -6 -14 -12 -3 -8 -6 -5 -6 5 -1 10 -6 15 -11 12 -6 -3 -13 1
-16 9 -3 9 -10 13 -15 10 -5 -3 -13 5 -18 18 l-10 23 0 -26 c-1 -32 -18 -49
-49 -49 -15 0 -21 -4 -16 -11 4 -7 1 -10 -7 -7 -8 3 -36 -6 -62 -20 -45 -23
-49 -24 -61 -7 -8 11 -29 18 -59 20 l-47 4 0 -75 c0 -68 2 -75 23 -83 13 -5
29 -16 36 -25 7 -9 17 -13 22 -10 5 3 9 1 9 -4 0 -6 11 -13 24 -16 13 -3 41
-24 62 -46 21 -22 57 -53 79 -68 41 -28 62 -50 104 -112 28 -41 74 -140 65
-140 -4 0 14 -22 40 -50 62 -66 65 -121 5 -89 -11 6 -18 16 -16 24 4 8 -1 11
-13 8 -11 -3 -39 4 -62 16 -32 15 -48 31 -63 63 -11 24 -18 51 -17 61 1 10 -2
16 -7 13 -13 -8 -33 20 -36 51 -6 63 -18 112 -26 108 -4 -3 -13 3 -19 12 -10
16 -11 16 -5 -2 4 -11 9 -38 12 -59 2 -22 9 -49 15 -60 10 -18 9 -19 -4 -8 -9
7 -18 26 -22 43 -3 18 -10 28 -17 24 -8 -5 -8 -10 0 -18 15 -15 14 -50 -1 -66
-11 -10 -10 -11 5 -5 19 7 42 -8 58 -37 9 -17 7 -17 -31 -4 -23 8 -38 10 -35
5 3 -5 21 -14 40 -20 38 -12 44 -24 19 -34 -27 -10 -44 -7 -44 10 0 13 -3 14
-14 5 -11 -9 -19 -3 -40 35 -27 49 -31 70 -17 93 10 15 -45 127 -80 162 -26
26 -24 11 3 -18 l22 -23 -34 6 c-24 5 -31 4 -26 -4 4 -7 19 -12 32 -12 16 0
24 -5 21 -12 -2 -7 -18 -12 -36 -12 l-31 2 0 -69 c0 -55 3 -69 15 -69 9 0 20
-11 25 -24 5 -13 14 -27 20 -31 8 -5 8 -11 -1 -21 -6 -8 -9 -17 -5 -21 3 -4
12 2 19 11 11 15 17 17 35 7 28 -15 30 -45 3 -36 -11 3 -24 -1 -32 -11 -13
-16 -12 -16 7 -6 18 10 21 9 20 -5 0 -9 5 -18 13 -21 8 -3 11 0 7 7 -9 14 -10
14 49 -8 28 -11 49 -25 47 -32 -2 -7 3 -16 10 -20 12 -8 14 -12 17 -43 0 -8 9
-13 18 -12 10 2 31 -3 48 -9 16 -7 37 -10 45 -8 9 3 7 -1 -5 -12 l-20 -17 20
7 c11 4 31 10 43 13 18 3 20 7 10 13 -9 6 -7 9 10 9 12 0 22 -5 22 -12 0 -6 9
-1 19 11 20 23 30 18 26 -11 -4 -22 -1 -22 19 -3 13 13 15 13 21 -6 4 -12 12
-18 21 -15 8 3 14 -1 14 -9 0 -22 -4 -30 -13 -28 -4 2 -7 -2 -7 -8 0 -5 -4 -7
-10 -4 -5 3 -10 2 -10 -4 0 -6 -12 -17 -27 -25 -16 -8 -23 -15 -18 -16 6 0 4
-4 -3 -8 -15 -10 0 -62 19 -62 8 0 8 5 -1 15 -10 12 -10 19 -2 27 8 8 21 5 47
-11 20 -11 41 -21 46 -21 6 0 22 -9 36 -20 14 -11 30 -17 36 -13 6 4 8 0 4
-10 -6 -16 -5 -16 18 -1 20 13 25 13 22 3 -2 -8 -2 -11 0 -8 2 4 20 3 39 -1
28 -6 34 -5 30 5 -4 11 12 25 34 29 3 1 11 5 19 10 12 7 9 11 -10 19 -13 5
-36 11 -52 12 -35 2 -49 16 -37 35 8 12 11 11 16 -8 5 -15 9 -20 14 -12 5 9
19 5 51 -11 72 -39 81 -41 67 -20 -6 10 -8 25 -5 34 9 23 63 49 107 50 20 1
44 10 54 20 10 9 27 17 39 17 19 -1 18 -2 -6 -13 -20 -8 -33 -25 -42 -52 l-14
-40 29 33 c17 17 32 32 35 32 3 0 14 9 24 19 17 17 17 20 4 25 -9 4 -13 9 -10
12 3 4 21 -6 38 -20 22 -19 39 -26 54 -22 12 3 45 -1 74 -10 28 -8 57 -14 64
-12 21 4 116 -12 143 -24 26 -12 64 -77 64 -109 0 -10 5 -21 11 -25 6 -3 9
-15 6 -25 -3 -11 -1 -17 3 -14 5 3 11 -4 15 -15 5 -16 15 -20 51 -20 31 0 44
4 44 14 0 26 -12 46 -23 39 -7 -4 -8 0 -4 11 9 23 -22 74 -69 115 -39 35 -125
81 -149 81 -9 0 -14 4 -11 9 10 16 -24 69 -49 75 -14 4 -25 11 -25 16 0 6 -7
10 -15 10 -8 0 -15 4 -15 10 0 12 -48 60 -60 60 -6 0 -10 5 -10 11 0 7 -8 19
-18 28 -27 24 -42 56 -47 101 -3 36 1 44 32 75 l36 35 34 -21 35 -22 87 92
c47 51 85 94 82 97 -2 2 1 4 8 4 7 0 11 6 8 14 -3 8 -3 16 1 18 4 2 25 22 46
45 34 37 37 44 25 59 -12 14 -10 20 17 43 23 21 28 31 21 43 -8 12 -1 26 29
58 65 72 68 74 72 61 2 -6 9 -8 14 -5 7 4 8 2 4 -5 -4 -6 -11 -9 -16 -6 -8 5
-103 -96 -96 -103 10 -9 47 21 99 81 31 36 57 68 57 71 0 13 -28 5 -34 -10 -4
-9 -9 -14 -12 -11 -3 3 2 17 11 31 31 48 1 26 -67 -47z"/>
<path d="M2047 1023 c-3 -3 -3 -11 0 -19 3 -10 -2 -14 -18 -14 -19 0 -21 2 -9
10 13 9 13 10 0 10 -8 0 -30 -19 -49 -43 -19 -23 -28 -36 -21 -29 23 20 31 14
23 -20 -10 -51 -9 -153 2 -153 6 0 13 20 16 45 l6 45 3 -55 c1 -30 2 -58 1
-62 0 -5 4 -8 10 -8 6 0 8 9 4 20 -4 11 -2 20 4 20 6 0 11 -9 11 -21 0 -11 5
-17 10 -14 6 3 10 -2 10 -13 0 -10 10 -30 23 -43 16 -18 21 -34 19 -62 -2 -21
2 -45 8 -53 10 -11 7 -22 -10 -51 -13 -21 -31 -60 -41 -88 -9 -27 -18 -42 -18
-33 -1 18 -38 58 -55 58 -5 0 -6 -3 -3 -7 4 -3 2 -12 -4 -20 -6 -7 -9 -13 -6
-13 3 0 1 -13 -4 -30 -6 -16 -15 -30 -20 -30 -16 0 -30 41 -27 83 3 38 7 44
44 62 38 19 40 22 34 53 -4 17 -4 32 1 32 5 0 9 8 9 18 0 14 -2 15 -10 2 -8
-13 -10 -13 -10 1 0 9 -11 25 -25 35 -19 14 -25 28 -26 59 0 22 -6 56 -14 75
-10 28 -14 32 -20 18 -4 -10 -12 -15 -17 -12 -6 4 -8 -2 -3 -15 9 -29 -2 -71
-19 -71 -7 0 -56 22 -110 50 -78 40 -101 48 -117 40 -23 -13 -24 -26 -2 -34 9
-4 47 -27 85 -52 40 -27 75 -43 84 -40 8 3 13 2 9 -3 -3 -5 1 -12 7 -15 7 -3
2 -3 -11 0 -15 4 -21 2 -17 -4 4 -7 -4 -10 -21 -8 -16 2 -28 5 -28 6 0 1 -15
4 -34 7 -28 4 -33 2 -27 -12 3 -9 2 -14 -4 -10 -6 4 -10 -6 -8 -24 1 -17 5
-31 9 -31 8 0 34 -71 31 -83 -1 -5 2 -6 8 -2 13 8 13 -1 0 -25 -8 -16 -4 -25
25 -51 19 -18 35 -38 35 -46 0 -7 11 -13 24 -13 18 0 27 -8 35 -31 14 -40 14
-39 -6 -33 -10 3 -6 -2 9 -12 15 -10 28 -27 30 -39 2 -12 9 -19 19 -17 12 2
21 -11 31 -43 9 -25 11 -45 6 -45 -5 0 -6 -5 -3 -10 4 -6 11 -8 16 -5 5 4 9 1
9 -4 0 -6 7 -11 16 -11 8 0 12 -5 9 -11 -5 -6 0 -6 12 1 39 25 91 131 99 205
4 33 13 59 20 62 8 3 24 22 36 44 12 22 26 35 32 31 6 -3 3 7 -8 22 -10 16
-14 26 -8 22 6 -3 19 9 31 27 15 23 21 27 21 14 0 -11 4 -15 12 -11 8 5 9 0 6
-14 -4 -12 -2 -22 3 -22 5 0 9 -11 9 -25 0 -14 5 -25 10 -25 6 0 10 70 10 191
0 104 -4 188 -8 185 -5 -3 -14 11 -21 30 -7 20 -24 40 -42 49 -38 20 -37 26 4
19 21 -4 28 -3 19 4 -7 5 -12 15 -10 23 2 8 -5 14 -17 14 -12 0 -26 12 -35 30
-9 17 -24 32 -35 33 -11 2 -27 8 -35 13 -13 7 -12 8 3 9 9 0 17 4 17 8 0 9
-35 13 -43 5z"/>
<path d="M0 170 l0 -170 312 0 c276 0 310 2 292 15 -10 8 -23 15 -27 15 -8 0
-56 22 -232 103 -162 75 -263 132 -304 170 l-41 38 0 -171z"/>
<path d="M2212 303 c-12 -2 -20 -9 -17 -14 3 -5 0 -6 -7 -4 -8 3 -27 -9 -43
-27 -17 -18 -22 -26 -12 -19 15 12 17 11 18 -5 0 -11 3 -28 6 -39 10 -39 8
-80 -4 -78 -7 2 -10 -6 -8 -17 2 -11 0 -22 -4 -24 -4 -3 -7 5 -8 17 -1 12 -3
32 -6 44 -3 13 -2 25 3 28 5 3 7 -4 5 -16 -2 -12 -1 -19 2 -15 4 4 8 18 9 32
1 17 -2 22 -10 14 -16 -16 -30 -12 -16 5 11 13 10 14 -1 10 -8 -3 -21 -20 -29
-38 -7 -17 -16 -36 -18 -41 -3 -5 1 -5 9 0 12 7 12 5 0 -9 -7 -9 -11 -26 -8
-37 3 -13 -2 -28 -16 -40 -11 -11 -16 -20 -10 -20 6 0 21 13 34 29 25 32 39
26 39 -16 0 -28 31 -31 51 -6 10 11 10 14 2 9 -8 -4 -13 -2 -13 4 0 6 -5 8
-11 4 -8 -4 -7 -9 2 -15 10 -6 10 -9 2 -9 -15 0 -25 15 -16 24 7 7 9 13 16 50
2 11 9 22 15 24 11 3 11 -16 -1 -35 -6 -9 -3 -11 7 -7 11 4 14 0 11 -15 -2
-12 1 -21 7 -21 7 0 7 -4 -1 -13 -8 -11 -4 -14 23 -14 34 0 35 1 33 43 -1 23
-5 40 -9 38 -4 -3 -8 0 -8 6 0 6 -6 8 -12 4 -10 -5 -10 -4 -1 6 13 14 6 43 -8
34 -5 -3 -6 2 -3 10 3 9 10 16 16 16 5 0 6 -4 3 -10 -3 -5 -2 -10 4 -10 5 0 8
-9 6 -20 -2 -11 0 -20 6 -20 5 0 9 46 9 105 0 58 -3 104 -7 104 -5 -1 -18 -4
-31 -6z"/>
</g>
</svg>
