<?xml version="1.0" standalone="no"?>
<!DOCTYPE svg PUBLIC "-//W3C//DTD SVG 20010904//EN"
 "http://www.w3.org/TR/2001/REC-SVG-20010904/DTD/svg10.dtd">
<svg version="1.0" xmlns="http://www.w3.org/2000/svg"
 width="225.000000pt" height="225.000000pt" viewBox="0 0 225.000000 225.000000"
 preserveAspectRatio="xMidYMid meet">
<metadata>
Created by potrace 1.15, written by Peter Selinger 2001-2017
</metadata>
<g transform="translate(0.000000,225.000000) scale(0.100000,-0.100000)"
fill="#000000" stroke="none">
<path d="M1920 2232 c-28 -14 -37 -25 -46 -61 -6 -25 -16 -47 -22 -49 -7 -2
-12 -9 -12 -16 0 -35 -127 -116 -182 -116 -18 0 -58 -9 -88 -19 -30 -11 -56
-18 -58 -16 -5 5 26 63 59 112 49 72 37 113 -38 123 -26 4 -55 10 -64 14 -9 4
-25 -3 -43 -19 -15 -14 -31 -25 -36 -25 -4 0 -29 -23 -55 -52 -46 -51 -117
-184 -152 -285 -15 -47 -22 -54 -50 -59 -22 -4 -41 -1 -58 10 -14 9 -45 16
-74 16 -27 0 -55 6 -63 13 -7 7 -21 16 -30 20 -40 15 -383 -82 -408 -115 -12
-16 -53 -12 -64 5 -9 15 -8 20 7 28 9 6 17 19 17 29 0 13 5 17 14 14 8 -3 17
-1 21 5 3 6 15 11 25 11 10 0 23 7 28 16 6 11 11 13 16 5 17 -26 80 -2 86 34
2 6 6 20 11 33 15 39 10 52 -25 67 -19 8 -36 20 -38 27 -3 7 -15 13 -29 13
-13 0 -23 5 -22 12 2 7 -4 10 -12 7 -18 -7 -19 -16 -3 -32 7 -7 9 -13 5 -13
-4 -1 -11 -3 -17 -4 -5 -1 -14 -3 -19 -4 -5 0 -11 -19 -15 -41 -6 -38 -7 -39
-30 -28 -20 8 -28 7 -40 -5 -9 -9 -16 -21 -16 -28 0 -6 -6 -17 -14 -23 -16
-13 -29 -73 -17 -81 14 -8 -11 -77 -25 -71 -8 3 -16 1 -19 -5 -4 -5 -11 -7
-16 -3 -5 3 -77 8 -159 10 l-150 5 0 -473 0 -473 403 -3 402 -4 29 71 c16 40
34 71 42 71 8 0 14 5 14 11 0 5 -5 7 -10 4 -11 -7 -13 6 -4 29 4 11 12 13 29
6 27 -10 115 -8 115 3 0 4 -28 7 -62 7 l-63 0 -62 102 -63 103 0 -89 c0 -103
-8 -115 -77 -116 l-43 0 0 155 0 155 28 1 c24 0 25 1 7 9 l-20 9 20 1 c17 2
16 3 -5 9 -23 6 -25 12 -28 69 l-3 62 103 0 c109 0 151 -7 142 -21 -3 -5 4 -9
16 -9 29 0 60 -55 60 -108 0 -50 -12 -79 -46 -108 l-25 -20 24 -43 c13 -23 35
-49 47 -58 13 -9 20 -11 16 -5 -4 7 -1 12 8 12 20 0 20 -1 0 46 -25 60 -15
160 22 218 39 61 103 96 178 96 l56 0 0 -93 0 -93 -40 4 c-40 4 -47 14 -41 60
3 22 -37 13 -57 -13 -11 -14 -23 -41 -26 -60 -4 -19 -12 -35 -19 -35 -8 0 -7
-4 3 -10 8 -5 11 -12 8 -16 -7 -7 -6 -8 43 -67 21 -25 39 -37 58 -37 46 0 71
-11 71 -31 0 -11 -4 -19 -10 -19 -5 0 -10 -4 -10 -10 0 -5 7 -7 15 -4 11 5 13
2 8 -12 -4 -12 -3 -15 5 -10 8 4 12 37 12 86 0 52 4 83 13 91 11 10 10 18 -2
43 -12 23 -15 55 -13 129 l3 97 113 0 c101 0 117 -2 147 -23 43 -29 59 -60 59
-117 0 -47 -28 -106 -55 -116 -13 -5 -13 -9 0 -34 14 -26 13 -30 -3 -40 -15
-10 -15 -10 4 -5 18 5 28 -5 62 -62 l40 -68 -50 -3 c-28 -2 -56 -1 -63 1 -6 3
-38 49 -71 103 l-59 98 -3 -102 -3 -102 -58 0 c-55 0 -59 -2 -65 -25 -4 -14
-18 -31 -31 -37 -26 -12 -43 -63 -31 -94 3 -8 -1 -29 -10 -46 l-16 -31 34 6
c65 12 628 21 628 10 0 -6 -21 -16 -47 -22 -27 -7 -65 -17 -86 -22 -21 -6 -57
-7 -80 -4 -29 5 -54 2 -78 -9 -34 -15 -33 -15 54 -14 48 1 87 5 87 10 0 4 5 8
10 8 17 0 11 -28 -7 -33 -10 -3 10 -5 45 -6 67 -1 75 -14 19 -30 -26 -8 -16
-10 53 -9 109 1 170 8 170 20 0 5 -17 9 -37 8 -54 -3 -64 2 -23 9 38 7 140 -9
140 -21 0 -4 43 -8 95 -8 l95 0 0 825 0 825 -148 0 c-117 -1 -154 -4 -182 -18z
m-1552 -874 l-3 -53 -78 -3 c-44 -2 -84 2 -91 7 -9 8 -10 0 -2 -34 l10 -44 51
-3 50 -3 0 -52 1 -53 -53 0 -53 0 0 -74 c0 -103 -2 -106 -66 -106 l-54 0 0 45
c0 29 4 45 13 46 10 0 10 2 0 6 -10 3 -13 51 -13 189 l0 184 146 0 145 0 -3
-52z m262 -3 c0 -54 -1 -55 -28 -55 -15 0 -33 5 -40 12 -8 8 -20 5 -49 -14
-34 -22 -38 -29 -37 -66 0 -23 4 -45 7 -49 4 -3 -1 -15 -10 -26 -18 -20 -18
-20 12 -1 46 28 82 58 63 51 -24 -9 -23 10 1 23 29 15 33 13 26 -12 -6 -21 -5
-22 8 -5 8 9 22 17 31 17 14 0 16 -17 16 -145 l0 -145 -60 0 -60 0 0 55 0 55
-49 0 -50 0 -26 -55 -27 -55 -59 1 c-32 1 -59 4 -59 6 0 17 136 261 143 256 5
-3 7 2 5 10 -2 8 17 56 42 106 l44 91 78 0 78 0 0 -55z m1087 -17 l31 -71 36
71 36 72 60 0 61 0 -66 -129 c-57 -113 -65 -135 -65 -185 0 -43 -3 -56 -15
-56 -8 0 -15 -6 -15 -14 0 -7 7 -19 15 -26 8 -7 15 -23 15 -36 0 -22 -4 -24
-49 -24 -29 0 -53 6 -60 14 -7 8 -11 49 -10 104 l1 90 -66 127 c-36 70 -66
129 -66 131 0 2 28 4 63 4 l62 0 32 -72z"/>
<path d="M1083 813 c-12 -2 -27 -11 -33 -19 -7 -8 -19 -14 -26 -14 -9 0 -14
-12 -14 -36 0 -19 4 -33 9 -30 12 8 24 -26 13 -33 -13 -9 -28 -43 -27 -61 0
-8 -3 -17 -7 -20 -7 -5 -15 -38 -17 -66 -1 -7 -8 -14 -15 -17 -10 -4 -13 -1
-9 9 3 7 0 14 -6 14 -6 0 -11 -12 -11 -26 0 -19 4 -25 15 -20 13 5 15 -2 9
-44 -5 -42 -4 -51 11 -56 10 -4 21 -1 26 7 5 9 3 16 -8 20 -15 5 -15 8 3 25
35 37 60 78 74 124 7 25 13 48 12 53 -1 4 3 7 8 7 6 0 10 9 10 20 0 10 9 24
20 30 11 6 20 18 20 26 0 8 5 12 11 8 8 -5 8 -1 0 14 -6 11 -8 27 -5 35 3 8
-2 17 -10 20 -9 4 -16 13 -16 22 0 8 -3 14 -7 14 -5 -1 -18 -4 -30 -6z"/>
<path d="M950 760 c-12 -11 -24 -30 -25 -42 -4 -37 -4 -38 -16 -38 -7 0 -9 10
-5 25 6 23 4 24 -25 18 -21 -4 -34 -1 -41 8 -6 10 -8 3 -6 -24 4 -37 4 -38
-25 -31 -20 4 -32 2 -38 -7 -8 -12 -10 -12 -18 -1 -4 8 -12 13 -17 12 -5 0
-10 8 -12 20 -3 17 -11 20 -59 20 -46 0 -53 -2 -44 -14 6 -7 22 -11 35 -9 13
3 32 1 42 -5 13 -7 0 -10 -49 -10 -37 0 -69 3 -72 8 -3 5 -25 3 -50 -4 -24 -8
-46 -12 -47 -10 -9 8 -97 11 -109 3 -10 -6 -3 -9 21 -9 48 -1 122 -9 137 -15
7 -2 10 -11 7 -18 -4 -10 -25 -14 -77 -14 -73 -1 -111 12 -85 28 19 12 -5 11
-38 -1 -19 -8 -44 -7 -83 1 -44 9 -52 13 -36 20 18 7 17 8 -7 8 -15 1 -30 -3
-33 -9 -8 -14 -26 -13 -22 1 1 6 -8 13 -21 15 -12 2 -22 -1 -22 -6 0 -6 8 -10
18 -11 11 0 12 -2 4 -6 -7 -3 -20 1 -28 8 -9 7 -36 15 -60 17 -35 3 -44 0 -44
-12 0 -11 10 -16 28 -17 15 0 20 -3 12 -6 -42 -14 -42 -17 0 -23 l45 -7 -42
-1 -43 -2 0 -39 c0 -33 4 -40 23 -44 21 -4 21 -4 -3 -6 -20 -1 -22 -3 -10 -11
10 -6 11 -10 3 -10 -8 0 -13 -15 -13 -39 0 -35 2 -39 23 -35 l22 5 -23 -17
c-42 -31 -28 -44 51 -45 60 -1 66 -3 37 -10 -24 -5 -13 -6 36 -3 54 4 75 1 86
-9 8 -8 46 -18 87 -22 42 -4 68 -11 61 -15 -8 -5 2 -10 26 -14 43 -6 101 -2
111 8 3 3 15 6 25 6 41 0 6 34 -44 44 -21 4 -43 13 -50 20 -8 7 -20 15 -28 19
-8 3 12 6 44 6 115 2 44 14 -96 18 -78 1 -146 7 -151 12 -14 14 62 26 82 14 9
-6 57 -10 106 -10 89 0 89 0 25 7 l-65 7 74 1 c60 2 71 4 62 15 -8 10 -7 14 4
14 8 0 17 -8 20 -17 5 -17 31 -20 53 -6 6 4 17 4 22 1 6 -3 10 -1 10 5 0 6 4
9 9 6 17 -11 20 24 3 34 -16 11 -16 11 1 6 20 -6 47 2 47 16 0 5 -3 7 -8 4 -4
-2 -15 2 -25 9 -16 11 -15 13 10 18 16 3 29 1 31 -4 7 -17 50 -10 57 10 3 11
13 25 22 33 12 9 15 9 9 1 -4 -7 -2 -13 3 -13 6 0 11 7 11 15 0 18 50 21 51 3
0 -7 5 -1 10 14 10 27 35 41 74 42 14 1 24 12 32 36 8 24 12 29 13 15 1 -11 6
-2 11 19 5 21 8 41 6 43 -2 2 -14 -6 -27 -17z"/>
<path d="M1407 494 c-3 -3 -39 -6 -79 -5 -72 1 -74 0 -91 -29 -17 -29 -17 -30
0 -31 10 0 -3 -7 -29 -16 -26 -9 -46 -19 -43 -23 2 -4 -9 -7 -25 -8 -18 0 -29
4 -27 11 1 7 -5 12 -13 12 -8 0 -16 -7 -18 -16 -3 -16 2 -17 163 -23 17 -1 55
7 85 17 30 10 66 16 81 13 15 -3 42 -1 60 4 62 18 250 33 262 21 16 -16 24
-14 24 7 0 25 -15 32 -77 32 l-55 1 40 17 39 18 -124 2 c-90 1 -126 -1 -132
-10 -6 -10 -8 -10 -8 0 0 12 -22 17 -33 6z"/>
<path d="M2038 471 c-1 -5 -50 -12 -108 -16 -58 -3 -113 -9 -123 -11 -30 -9
-13 -29 28 -32 21 -2 49 -11 63 -20 25 -16 26 -16 19 1 -7 19 17 25 28 7 3 -5
25 -10 48 -11 40 0 133 -15 112 -18 -5 -1 -3 -5 5 -11 8 -5 11 -12 6 -17 -4
-4 -12 0 -17 10 -8 13 -23 17 -67 17 -53 -1 -56 -2 -37 -16 19 -14 17 -15 -25
-9 -25 4 -51 8 -57 11 -7 2 -13 -3 -13 -11 0 -17 17 -19 109 -15 45 1 62 -1
57 -9 -5 -7 4 -11 26 -11 18 0 40 -5 48 -10 12 -8 11 -10 -5 -10 -12 0 -26 -5
-33 -12 -9 -9 -30 -9 -89 1 -96 15 -136 16 -239 6 -56 -5 -84 -3 -88 4 -4 6 0
14 8 17 36 14 -1 24 -87 25 -51 0 -101 5 -112 10 -14 7 -4 8 35 5 41 -4 49 -2
30 5 -20 7 -16 8 18 4 24 -3 41 -2 38 3 -6 10 -84 27 -101 22 -5 -1 -46 -7
-90 -12 -44 -6 -87 -14 -95 -19 -12 -8 -11 -9 5 -8 11 1 33 -3 50 -10 16 -7
58 -15 92 -17 35 -3 75 -9 90 -14 24 -7 22 -9 -22 -10 -27 -1 -42 -4 -33 -7 9
-2 34 -13 55 -23 l38 -19 -51 -1 c-28 0 -102 -9 -164 -21 -63 -11 -162 -22
-220 -24 -58 -3 -144 -7 -192 -11 -69 -4 -88 -3 -88 8 0 8 -3 9 -8 3 -8 -12
-82 -31 -152 -39 -71 -9 -651 -10 -692 -1 l-38 7 0 -81 0 -81 1125 0 1125 0 0
130 c0 128 0 130 -22 130 -13 1 -34 8 -48 16 l-25 15 30 -5 c17 -2 38 -8 48
-11 9 -4 17 -3 17 3 0 5 -21 13 -47 17 l-48 8 35 8 c19 5 41 6 48 4 8 -3 12 8
12 35 0 35 -4 42 -32 55 l-33 15 33 -6 c37 -7 44 12 10 26 -23 9 -23 9 2 10
21 2 20 3 -9 10 -19 5 -62 7 -95 4 -33 -2 -65 1 -72 7 -7 6 -13 6 -16 0z"/>
</g>
</svg>
