<?xml version="1.0" standalone="no"?>
<!DOCTYPE svg PUBLIC "-//W3C//DTD SVG 20010904//EN"
 "http://www.w3.org/TR/2001/REC-SVG-20010904/DTD/svg10.dtd">
<svg version="1.0" xmlns="http://www.w3.org/2000/svg"
 width="224.000000pt" height="224.000000pt" viewBox="0 0 224.000000 224.000000"
 preserveAspectRatio="xMidYMid meet">
<metadata>
Created by potrace 1.15, written by Peter Selinger 2001-2017
</metadata>
<g transform="translate(0.000000,224.000000) scale(0.100000,-0.100000)"
fill="#000000" stroke="none">
<path d="M140 1550 l0 -689 38 -6 c20 -3 45 -8 55 -10 9 -2 15 0 13 4 -3 4 20
6 49 6 29 0 51 -3 49 -6 -3 -6 80 -12 126 -10 77 5 92 -2 84 -34 -3 -12 -1
-26 5 -29 18 -12 12 -25 -18 -41 -16 -8 -36 -22 -45 -31 -15 -14 -17 -14 -22
0 -8 20 -24 21 -24 2 0 -15 -48 -28 -65 -18 -5 4 -19 5 -29 3 -14 -2 -17 2
-13 14 10 23 -25 15 -40 -10 -14 -22 -16 -11 -4 20 6 15 3 23 -13 32 -19 11
-16 12 24 13 46 1 104 18 68 19 -10 1 -18 9 -19 19 -1 11 -4 9 -9 -8 -7 -23
-8 -23 -9 -3 -1 12 -6 25 -13 29 -7 5 -8 3 -3 -7 8 -12 6 -12 -8 0 -14 11 -17
11 -17 0 -1 -10 -4 -9 -11 3 -7 13 -20 16 -62 13 -28 -2 -60 -6 -69 -10 -27
-11 -21 -34 10 -40 15 -3 41 -10 57 -14 l30 -9 -32 -1 c-17 -1 -35 -6 -38 -11
-4 -6 -15 -8 -26 -5 -18 6 -19 -1 -19 -204 1 -158 4 -211 13 -211 9 0 9 -2 1
-8 -8 -5 -11 -52 -10 -142 1 -128 2 -135 21 -135 11 0 26 -4 33 -8 6 -5 12 -4
12 1 0 13 28 10 34 -4 3 -9 -9 -12 -44 -11 -28 0 -53 -2 -56 -6 -4 -4 27 -7
70 -7 76 0 77 0 65 23 -7 12 -17 25 -23 29 -6 4 4 8 22 8 20 0 31 -4 27 -10
-3 -5 1 -10 9 -10 9 0 16 5 16 10 0 6 20 10 45 10 28 0 47 5 50 13 11 33 9 51
-7 55 -16 3 -20 -20 -5 -34 13 -13 7 -24 -14 -24 -18 0 -20 4 -14 31 l7 31
-54 -2 c-97 -3 -129 0 -123 10 3 6 0 10 -7 10 -8 0 -9 3 -3 8 6 4 10 43 10 87
l1 80 104 3 105 3 -3 -76 c-2 -49 1 -74 7 -70 6 3 9 11 7 18 -1 7 -1 9 1 5 8
-15 25 -8 19 7 -4 11 2 15 22 14 24 0 25 -1 7 -9 -17 -7 -15 -9 13 -9 17 -1
32 -5 32 -10 0 -11 39 -25 47 -17 3 3 0 12 -7 21 -14 17 -8 31 9 20 6 -3 11
-21 12 -38 0 -26 2 -28 8 -12 5 11 6 26 4 33 -6 15 2 15 30 0 12 -7 29 -12 37
-13 18 0 24 -34 10 -55 -8 -13 -11 -13 -22 -1 -11 11 -11 13 0 6 11 -6 11 -3
0 14 -7 12 -22 21 -33 20 -19 0 -19 -1 -1 -8 15 -6 17 -9 6 -16 -10 -6 -9 -11
6 -22 17 -12 15 -13 -13 -7 -29 6 -31 4 -26 -15 5 -20 15 -26 37 -22 5 1 21
-2 36 -8 19 -6 31 -6 38 1 6 6 22 10 36 10 19 0 26 6 26 20 0 19 1 19 19 -3
l18 -23 5 32 c2 17 1 29 -3 26 -4 -2 -11 0 -14 6 -4 6 -3 10 2 9 31 -5 46 23
46 90 0 37 28 78 46 66 6 -3 11 -22 11 -42 0 -28 3 -33 13 -25 10 9 17 6 30
-8 12 -14 13 -21 5 -26 -7 -4 -14 -2 -16 4 -2 7 -18 12 -35 11 -30 0 -31 -1
-8 -10 17 -7 21 -14 16 -27 -4 -9 -8 -22 -9 -28 -1 -7 -8 -20 -16 -30 -14 -16
-13 -16 8 -5 18 10 22 9 22 -4 0 -8 -7 -15 -16 -15 -8 0 -12 -4 -9 -10 3 -5
-2 -10 -11 -10 -16 0 -16 -1 1 -20 9 -10 15 -26 12 -34 -3 -8 -1 -17 6 -20 7
-2 4 -5 -6 -5 -21 -1 -51 25 -43 37 3 5 -6 14 -20 21 -23 10 -26 9 -31 -9 -4
-16 -9 -18 -26 -9 -17 10 -19 9 -14 -6 4 -9 7 -19 7 -21 0 -3 5 -2 11 1 15 10
61 -4 54 -15 -4 -7 179 -10 529 -10 530 1 536 1 526 20 -14 25 -86 30 -76 5 9
-25 -57 -19 -80 6 l-19 21 40 -6 c27 -4 48 -1 65 9 24 14 23 14 -27 15 -47 0
-53 3 -53 20 0 17 6 20 33 19 66 -4 87 1 87 18 0 14 2 14 20 -2 11 -10 23 -15
27 -11 5 4 0 12 -10 17 -17 10 -15 29 4 29 6 0 7 -5 4 -10 -3 -6 1 -10 11 -10
13 0 14 3 4 15 -13 15 -5 39 11 29 5 -3 7 -9 4 -14 -3 -4 5 -6 17 -2 l22 5
-23 11 c-19 8 -22 16 -19 52 1 23 0 40 -3 38 -4 -2 -15 6 -25 18 -13 15 -14
19 -4 14 8 -4 4 2 -9 13 -19 17 -20 21 -6 21 9 0 28 -9 42 -20 14 -11 20 -20
12 -20 -8 0 -6 -5 6 -13 13 -10 15 -16 6 -21 -14 -9 -5 -26 14 -26 8 0 12 8 9
23 l-5 22 10 -23 c6 -12 17 -22 25 -22 7 0 16 -7 19 -14 4 -11 1 -13 -10 -9
-10 4 -14 2 -10 -4 3 -5 24 -15 46 -23 42 -14 47 -19 32 -36 -6 -5 -4 -14 6
-23 12 -11 14 -8 11 25 -2 22 -9 40 -15 40 -42 4 -45 7 -18 13 l30 7 -33 17
c-18 10 -30 22 -26 28 4 6 14 2 25 -10 19 -20 39 -28 39 -15 0 4 -8 13 -17 20
-17 13 -17 14 0 8 22 -8 23 19 0 37 -15 12 -16 12 -11 -2 5 -13 2 -16 -13 -12
-21 6 -25 19 -8 25 7 2 1 11 -13 20 -23 15 -24 15 -24 -5 1 -13 -6 -23 -16
-25 -10 -2 -18 1 -18 7 0 6 7 7 17 4 11 -4 14 -3 9 5 -4 7 -22 12 -40 12 -19
0 -39 7 -46 15 -7 9 -19 14 -26 11 -7 -3 -14 0 -16 6 -2 5 -15 -1 -28 -16 -14
-14 -32 -26 -41 -26 -25 0 -48 -33 -58 -82 -7 -42 -6 -49 18 -73 l26 -27 -39
16 c-44 18 -60 20 -51 6 3 -5 15 -10 26 -10 10 0 19 -4 19 -9 0 -5 8 -12 18
-14 9 -3 3 -5 -15 -6 -17 0 -38 -4 -47 -7 -17 -7 -22 -34 -6 -34 6 0 10 7 10
15 0 8 5 15 10 15 6 0 10 -9 10 -20 0 -15 -7 -20 -26 -20 -24 0 -25 3 -21 35
5 36 -6 55 -19 34 -5 -8 -3 -9 6 -4 9 5 11 4 6 -4 -6 -9 -13 -9 -29 2 -26 17
-36 67 -13 67 8 0 23 3 33 6 13 4 15 3 4 -4 -10 -7 -10 -11 -1 -17 19 -12 35
11 20 29 -10 13 -10 17 3 22 22 8 40 58 32 92 -8 37 -40 68 -83 79 l-33 8 49
19 c51 20 72 51 72 105 0 29 -37 100 -55 108 -8 3 -15 16 -15 29 0 22 4 24 54
24 29 0 75 3 102 6 36 4 45 3 34 -5 -12 -8 -7 -11 23 -11 21 0 36 4 32 9 -8
14 78 24 140 16 l55 -6 0 58 c-1 52 -2 56 -14 40 -12 -15 -18 -16 -35 -7 -12
6 -21 15 -21 21 0 6 4 8 9 5 16 -10 19 19 5 39 -8 10 -15 16 -15 12 -1 -4 -3
-11 -4 -17 -1 -5 -3 -17 -4 -26 -1 -10 -7 -14 -16 -11 -8 4 -17 2 -20 -3 -4
-6 -2 -10 3 -10 5 0 12 -9 15 -20 6 -23 -11 -27 -19 -5 -4 8 -10 13 -15 10 -4
-3 -20 -3 -34 1 -21 5 -24 10 -19 28 6 18 5 19 -8 9 -12 -11 -17 -8 -28 12
-15 28 -7 46 12 27 18 -18 23 -15 26 13 1 19 -5 28 -24 35 -14 6 -29 8 -34 5
-5 -3 -11 -1 -14 4 -3 5 -14 7 -25 4 -13 -3 -23 4 -34 26 -12 24 -13 31 -2 31
7 0 15 10 19 22 4 18 8 20 18 10 15 -15 28 -16 28 -2 0 6 -7 10 -16 10 -8 0
-12 5 -9 10 11 17 -7 11 -21 -7 -12 -17 -16 -15 -48 22 -40 45 -46 61 -17 45
13 -7 22 -7 26 0 3 5 -2 10 -12 11 -16 0 -16 1 2 9 15 7 9 9 -26 9 -48 1 -105
29 -64 32 82 4 119 -3 147 -32 16 -16 32 -28 36 -27 4 1 25 -9 47 -23 22 -14
48 -28 58 -32 9 -3 17 -11 17 -17 0 -5 12 -10 26 -10 17 0 28 -6 31 -20 3 -11
11 -20 18 -20 8 0 23 -12 34 -26 l21 -27 0 77 c0 44 -4 75 -9 72 -5 -4 -11 -1
-13 5 -2 6 -35 23 -73 38 -54 22 -70 33 -71 49 -1 15 6 23 25 27 33 7 57 40
36 49 -8 3 -23 -6 -34 -19 -10 -14 -24 -25 -30 -25 -6 0 -11 -9 -11 -20 0 -26
-20 -25 -53 0 -14 11 -40 23 -59 27 -18 3 -37 12 -41 19 -9 15 -56 9 -99 -12
-37 -19 -48 -38 -17 -30 l24 6 -23 -11 c-18 -10 -25 -9 -40 4 -10 10 -25 17
-33 17 -8 0 -45 20 -84 45 -38 25 -76 45 -85 45 -13 -1 -13 -2 0 -13 23 -17
74 -87 68 -92 -2 -3 -18 14 -34 38 -30 41 -99 82 -87 51 8 -21 -24 -17 -36 4
-5 9 -12 16 -15 15 -15 -7 -15 -1 -2 30 12 29 19 113 19 210 0 20 4 26 13 23
9 -3 14 2 15 12 0 13 3 12 11 -5 6 -13 16 -23 23 -23 6 0 19 -16 28 -36 13
-27 22 -35 40 -32 12 2 26 13 32 26 8 19 17 22 67 22 51 0 58 2 58 20 0 17 7
20 40 20 22 0 40 5 40 10 0 6 13 10 29 10 17 0 33 5 36 10 4 6 13 7 23 1 13
-7 27 -1 55 24 21 19 46 36 55 39 13 4 18 19 20 59 3 58 -19 100 -59 112 -19
6 -18 9 16 32 34 23 37 29 33 64 -3 35 -1 39 20 39 13 0 30 -7 38 -15 21 -21
83 -30 107 -15 16 9 21 9 28 -2 5 -8 9 17 9 62 0 41 -4 70 -8 64 -5 -8 -21 -9
-47 -4 -37 6 -36 11 5 23 8 2 1 6 -17 9 -18 2 -30 1 -27 -4 8 -12 -28 -10 -46
3 -13 9 -12 10 2 5 10 -3 20 -1 23 4 6 10 -46 13 -184 11 -48 -1 -78 -5 -83
-13 -6 -10 -8 -10 -8 -1 0 8 -14 12 -38 11 -22 0 -44 2 -50 6 -7 4 -12 3 -12
-2 0 -5 -15 -8 -34 -8 -25 1 -32 5 -28 16 5 13 4 13 -14 0 -10 -8 -22 -19 -26
-25 -4 -5 -10 -6 -15 -2 -4 5 -1 12 6 17 8 4 11 15 8 24 -4 9 -3 16 1 17 43 5
52 5 52 -1 0 -10 58 -11 65 -1 3 6 16 6 35 0 20 -7 35 -7 49 1 12 6 21 7 21 2
0 -4 8 -8 18 -8 9 0 27 -4 40 -8 16 -5 22 -3 22 8 0 8 5 18 12 22 7 4 8 3 4
-4 -10 -16 7 -15 23 1 10 10 11 9 6 -5 -6 -14 -1 -16 29 -15 22 1 36 7 36 15
0 7 5 10 10 7 6 -4 17 -2 23 4 7 5 42 14 77 19 l65 10 -85 2 c-74 3 -79 4 -40
10 l45 7 -40 3 c-22 1 -49 2 -60 1 -19 -1 -19 0 1 8 12 5 56 9 98 9 60 -1 76
-4 79 -17 3 -10 5 -8 6 7 l1 22 -975 0 -975 0 0 -690z m1567 410 c21 0 22 -2
10 -27 -6 -16 -14 -30 -17 -33 -4 -3 -21 -30 -38 -61 -31 -54 -43 -119 -22
-119 6 0 10 9 10 21 0 11 5 17 10 14 14 -9 12 -45 -2 -46 -7 -1 -21 -1 -30 0
-21 3 -22 -3 -6 -28 7 -12 18 -16 31 -13 14 3 18 1 15 -9 -7 -21 -101 -24
-117 -5 -8 9 -13 41 -12 76 0 51 -5 70 -30 116 -17 29 -32 54 -33 54 -1 0 -2
-16 -3 -36 -1 -21 -9 -45 -22 -58 -12 -12 -21 -26 -21 -31 0 -4 16 -32 35 -61
19 -29 35 -57 35 -63 0 -6 -18 -11 -40 -11 -39 0 -42 2 -83 66 l-42 66 -3 -66
c-3 -66 -3 -66 -32 -66 -22 0 -30 5 -30 18 0 10 -6 26 -14 37 -9 14 -14 58
-15 143 l-1 122 88 0 c84 0 91 -2 117 -27 23 -23 26 -24 16 -6 -16 32 -15 33
34 33 39 0 47 -4 57 -25 6 -13 15 -22 21 -18 6 3 7 1 3 -5 -4 -7 -3 -19 2 -29
9 -14 11 -14 21 5 8 16 8 22 1 22 -6 0 -8 5 -5 10 4 6 10 8 14 5 5 -2 13 7 20
21 9 20 17 25 34 20 12 -3 32 -6 44 -6z m-1127 -35 l0 -35 -66 0 c-56 0 -65
-2 -60 -16 3 -9 6 -19 6 -24 0 -5 17 -10 38 -12 34 -3 37 -5 37 -35 1 -34 -2
-36 -48 -33 l-29 2 4 -65 3 -64 -47 -2 -47 -2 0 161 -1 160 105 0 105 0 0 -35z
m190 0 c0 -34 -2 -36 -32 -34 -52 4 -78 -16 -78 -56 0 -21 5 -35 13 -35 14 0
47 20 33 20 -5 0 -3 7 4 15 7 8 17 12 22 9 6 -4 5 -10 -3 -15 -10 -6 -10 -9
-2 -9 6 0 15 5 18 10 17 28 25 1 25 -90 l0 -100 -45 0 c-47 0 -49 2 -45 53 1
25 -1 27 -34 27 -32 0 -38 -5 -57 -41 -18 -37 -24 -41 -48 -36 -17 4 -37 0
-50 -9 l-21 -15 18 33 c10 18 35 63 56 101 21 37 42 67 47 67 6 0 8 4 4 9 -3
5 4 27 16 48 49 86 45 83 104 83 l55 0 0 -35z m195 21 c59 -25 74 -92 31 -143
l-25 -30 40 -59 c21 -32 39 -62 39 -66 0 -5 -19 -8 -42 -8 -42 0 -44 2 -88 68
l-45 67 -3 -61 c-3 -54 -6 -63 -25 -68 -57 -15 -57 -14 -57 98 0 74 4 106 13
109 9 4 9 8 -2 15 -13 9 -13 13 0 28 9 11 9 15 2 10 -9 -5 -13 2 -13 23 l0 31
70 0 c39 0 86 -6 105 -14z m263 -48 c3 -54 1 -58 -22 -64 -33 -8 -46 1 -46 33
0 24 -1 25 -22 11 -13 -9 -28 -33 -34 -54 -11 -39 -10 -41 26 -81 12 -13 12
-17 2 -21 -7 -2 -21 -13 -31 -24 -18 -19 -19 -19 -40 8 -84 107 -9 259 124
251 l40 -2 3 -57z m-57 -292 c10 -24 30 -51 44 -60 25 -17 25 -17 9 -46 -10
-16 -26 -31 -37 -34 -19 -5 -19 -6 -3 -30 15 -24 15 -25 -1 -19 -11 4 -14 3
-9 -5 10 -16 0 -15 -27 3 -20 13 -25 13 -45 -1 -27 -19 -28 -34 -2 -34 20 0
44 -32 33 -44 -3 -3 1 -6 10 -6 9 0 17 -2 17 -5 0 -11 -51 -85 -58 -85 -10 0
-27 32 -42 82 -17 56 -34 60 -25 7 4 -24 11 -52 17 -61 9 -19 -5 -58 -23 -58
-29 0 -42 153 -13 164 8 3 12 10 9 16 -4 6 -11 8 -16 5 -5 -4 -9 3 -9 14 0 11
-10 30 -22 42 -13 12 -18 19 -12 16 7 -4 14 0 18 8 3 8 15 15 26 15 14 0 19
-4 14 -12 -5 -9 -2 -9 9 1 9 7 17 19 17 25 0 6 -4 4 -9 -3 -8 -12 -11 -9 -16
12 -5 18 -14 27 -27 27 -17 0 -18 2 -8 16 11 13 10 16 -9 21 -16 4 -19 8 -10
19 6 7 8 17 6 21 -3 5 14 8 38 8 40 0 42 -1 34 -23 -12 -31 -11 -82 1 -82 6 0
10 15 11 33 0 27 2 29 9 12 5 -11 9 -14 9 -7 1 7 12 25 26 40 14 15 25 32 25
39 0 28 22 11 41 -31z m-291 -208 c0 8 5 10 12 5 7 -4 29 -7 48 -8 29 0 34 -3
32 -20 -5 -28 -10 -31 -32 -17 -20 12 -36 1 -25 -18 3 -5 1 -10 -5 -10 -6 0
-8 -4 -5 -10 3 -5 1 -19 -6 -32 -11 -21 -12 -21 -26 -2 -13 17 -14 16 -8 -17
4 -23 3 -39 -4 -43 -6 -4 -11 -16 -11 -27 0 -26 -31 -50 -82 -66 -57 -17 -58
-17 -58 11 0 13 -7 26 -15 30 -15 6 -45 -18 -45 -37 0 -7 -4 -7 -12 1 -10 10
-10 15 0 21 8 5 13 10 12 12 -1 2 4 18 10 34 6 17 10 41 8 56 -2 14 0 29 4 35
5 5 17 21 29 36 15 21 34 30 79 39 33 6 65 18 71 26 10 11 14 11 20 1 7 -11 9
-11 9 0z m-514 -161 c17 6 19 -18 2 -36 -11 -10 -9 -11 5 -5 15 5 16 3 7 -20
-6 -18 -6 -25 0 -21 6 3 10 0 10 -9 0 -8 -6 -17 -12 -20 -9 -4 -8 -5 2 -5 36
3 40 -1 35 -28 -3 -16 -2 -21 2 -13 7 17 29 40 37 40 3 0 6 -7 6 -15 0 -8 -5
-15 -12 -15 -6 0 -8 -3 -5 -7 4 -3 2 -12 -4 -19 -15 -18 -3 -52 13 -36 10 10
13 25 17 77 1 17 3 18 11 5 8 -12 10 -10 10 9 0 24 0 24 15 5 14 -18 14 -18
15 9 0 37 19 34 27 -4 4 -21 9 -27 16 -20 7 7 15 7 24 -1 10 -8 12 -7 8 4 -6
16 20 44 29 30 3 -5 -1 -21 -9 -36 -8 -14 -10 -24 -4 -20 6 3 7 -4 3 -22 -4
-15 -3 -25 2 -21 5 3 10 -9 10 -26 l1 -32 -11 28 c-10 27 -26 37 -26 16 0 -5
-6 -7 -12 -3 -9 5 -10 4 -3 -5 16 -17 6 -81 -12 -81 -8 0 -13 -6 -10 -13 3 -9
-5 -12 -29 -9 -33 4 -40 14 -34 51 1 13 -1 13 -14 2 -10 -9 -16 -9 -16 -3 0 7
-7 9 -17 5 -12 -5 -15 -2 -10 10 4 11 1 17 -8 17 -8 0 -15 7 -15 16 0 8 -5 12
-10 9 -6 -3 -10 0 -10 7 -1 7 -7 2 -15 -12 -8 -14 -15 -20 -16 -15 -3 23 -6
31 -14 49 -4 10 -4 21 1 25 5 3 10 29 12 56 2 35 0 46 -7 36 -7 -11 -9 -1 -8
32 1 26 3 43 5 38 2 -6 10 -7 18 -4z m885 -68 c19 -7 37 -15 41 -18 13 -11 -8
-66 -25 -66 -8 0 -19 -4 -23 -8 -18 -18 -56 -5 -93 33 -37 38 -60 52 -46 30 3
-5 1 -10 -6 -10 -8 0 -4 -9 8 -22 35 -40 37 -54 3 -23 -18 17 -30 24 -26 18 4
-7 2 -13 -5 -13 -7 0 -5 -10 6 -27 17 -25 17 -27 -1 -40 -11 -8 -27 -19 -37
-24 -16 -9 -17 -8 -8 9 9 17 6 16 -37 -5 -26 -13 -65 -37 -87 -54 -22 -16 -49
-34 -60 -38 -44 -19 -105 -72 -105 -91 0 -17 2 -17 28 7 37 34 96 63 110 54 8
-5 -9 -23 -48 -51 -33 -24 -60 -50 -60 -57 0 -8 -5 -11 -10 -8 -6 3 -17 -1
-26 -9 -9 -9 -11 -16 -4 -16 6 0 9 -4 6 -9 -7 -10 27 -21 66 -21 15 0 30 -5
33 -11 5 -7 -5 -8 -32 -3 -59 12 -96 10 -101 -5 -3 -8 0 -11 6 -7 15 9 173
-28 205 -48 25 -17 118 -106 110 -106 -2 0 -41 18 -86 40 -74 35 -90 39 -136
34 -49 -4 -52 -3 -46 16 4 13 2 21 -7 21 -70 8 -83 6 -99 -12 -17 -19 -18 -19
-28 -2 -9 15 -10 12 -7 -14 3 -30 2 -32 -24 -26 -25 4 -29 2 -35 -25 -5 -23
-10 -29 -22 -25 -12 5 -15 2 -10 -9 8 -23 -3 -30 -20 -13 -16 17 -6 65 33 152
26 58 55 83 98 83 l29 0 -6 62 c-4 51 -2 67 14 89 14 20 16 30 8 35 -8 5 -9 3
-4 -6 5 -8 4 -11 -2 -7 -6 4 -9 24 -7 44 3 21 6 52 7 70 1 17 4 30 6 28 2 -2
10 2 18 10 19 19 122 20 148 2 17 -13 17 -15 0 -45 -14 -23 -28 -32 -57 -37
-21 -4 -38 -10 -38 -14 0 -4 -11 -14 -25 -21 -14 -7 -23 -15 -21 -18 3 -2 19
6 36 18 17 12 55 25 85 29 31 4 70 18 92 33 51 35 144 115 143 125 0 9 80 30
121 32 14 0 41 -4 60 -10z m266 -63 c-4 -10 0 -14 14 -11 25 5 48 -33 28 -46
-8 -5 -20 -7 -27 -4 -10 4 -8 -5 5 -27 11 -18 27 -32 36 -32 10 1 17 -2 17 -7
0 -5 -5 -9 -12 -9 -19 0 12 -26 41 -35 16 -5 21 -4 17 4 -4 6 -2 11 3 11 6 0
11 -10 12 -22 0 -13 3 -17 6 -10 3 8 11 4 25 -13 11 -14 25 -24 31 -22 6 2 27
-2 46 -9 30 -10 37 -10 47 4 13 18 38 6 30 -15 -3 -8 3 -28 15 -44 17 -24 18
-29 5 -29 -9 0 -16 5 -16 10 0 6 -7 10 -15 10 -8 0 -23 9 -32 19 -17 21 -43
18 -43 -5 0 -8 11 -20 25 -26 37 -17 30 -29 -7 -14 -39 16 -59 11 -51 -12 3
-13 2 -14 -4 -4 -8 10 -12 10 -23 -3 -15 -18 -31 -20 -27 -2 1 6 -6 11 -15 11
-10 -1 -18 5 -18 13 0 11 9 13 35 10 25 -4 35 -1 35 9 0 8 -4 14 -10 14 -5 0
-10 7 -10 16 0 8 5 12 10 9 6 -3 10 -4 10 -1 0 3 -9 10 -19 16 -17 9 -19 7
-16 -10 5 -26 -7 -26 -23 1 -8 12 -9 18 -3 15 7 -4 8 -1 5 8 -3 9 -10 16 -16
16 -5 0 -7 4 -4 9 7 11 -24 24 -33 15 -3 -4 0 -9 7 -11 6 -3 10 -9 7 -14 -3
-4 1 -22 10 -40 9 -17 14 -33 11 -36 -7 -7 -46 72 -46 93 0 9 -16 46 -36 81
-43 78 -57 120 -41 127 19 7 19 7 14 -8z m-284 -321 c9 -2 17 2 18 8 0 7 5 2
11 -10 7 -15 20 -23 37 -23 20 0 23 2 11 10 -10 7 -11 10 -2 10 7 0 15 -7 18
-15 4 -8 15 -15 25 -15 10 0 19 -4 19 -9 0 -13 49 -20 53 -7 3 8 12 8 35 0 24
-9 33 -9 45 3 13 13 14 10 14 -24 -1 -35 1 -38 24 -35 23 3 23 3 5 -11 -17
-13 -16 -14 13 -14 17 0 36 -4 42 -10 6 -6 0 -8 -18 -6 -21 3 -32 -2 -42 -18
-14 -23 -13 -23 11 -7 14 9 29 13 35 10 15 -10 0 -109 -19 -129 -13 -12 -14
-22 -7 -41 7 -19 6 -29 -6 -41 -9 -9 -15 -11 -15 -4 0 6 -3 20 -6 30 -5 15 -4
15 5 3 7 -9 11 -10 11 -3 0 6 -4 15 -10 18 -17 10 -12 48 5 41 17 -6 19 2 5
24 -6 10 -4 21 8 34 17 19 17 19 -10 0 -25 -17 -41 -43 -18 -29 6 3 10 2 10
-4 0 -5 -4 -13 -10 -16 -5 -3 -10 -24 -10 -45 0 -43 -16 -62 -28 -33 -4 10
-15 19 -25 20 -15 1 -18 -5 -15 -32 1 -19 -1 -38 -6 -42 -4 -4 -6 16 -5 45 2
28 3 52 2 52 -1 0 -8 -7 -17 -15 -10 -11 -13 -28 -10 -60 5 -39 3 -45 -13 -45
-12 0 -14 -3 -6 -8 8 -5 7 -16 -4 -42 -9 -20 -17 -29 -20 -22 -7 18 26 204 39
219 8 10 -2 13 -51 13 -68 0 -114 16 -90 31 11 7 10 9 -5 9 -20 0 -20 0 -1 14
11 8 23 12 27 10 5 -3 8 -1 8 4 0 5 12 7 28 5 21 -4 24 -2 12 6 -11 8 -11 11
-2 12 6 1 17 3 22 4 6 1 25 3 43 4 24 1 28 4 17 11 -13 8 -12 10 3 10 9 0 17
5 17 10 0 13 27 13 35 -1 4 -6 0 -9 -11 -7 -10 2 -19 -3 -19 -10 0 -7 -6 -17
-14 -21 -9 -6 -1 -9 25 -8 26 1 47 10 61 25 12 12 17 22 11 22 -6 0 -17 -8
-24 -17 -12 -16 -13 -15 -14 15 0 32 -1 33 -37 27 -21 -4 -51 -10 -68 -15 -41
-11 -230 -22 -259 -14 -21 5 -23 9 -16 37 5 18 11 47 14 65 8 60 20 65 109 47z"/>
<path d="M331 301 c-9 -6 -12 -20 -9 -41 5 -30 4 -31 -9 -15 -7 11 -13 25 -13
32 0 14 -13 16 -47 7 l-21 -6 18 -64 c20 -72 24 -79 40 -69 7 4 9 20 5 38 l-6
32 18 -30 c12 -21 24 -30 37 -27 15 3 17 10 12 45 -4 30 -3 38 4 27 5 -8 10
-23 10 -32 0 -9 5 -20 11 -24 23 -14 27 13 12 74 -16 63 -29 74 -62 53z"/>
</g>
</svg>
